<svg xmlns="http://www.w3.org/2000/svg" viewBox="0 0 342 240.8"><defs><style>.a{fill:#9e6afb;}.b{fill:#9e69fb;}.c{fill:#9d69fb;}.d{fill:#9d68fb;}.e{fill:#9c67fb;}.f{fill:#9c66fb;}.g{fill:#9b66fb;}.h{fill:#9b65fb;}.i{fill:#9a64fb;}.j{fill:#9a63fb;}.k{fill:#9962fb;}.l{fill:#9861fb;}.m{fill:#9860fb;}.n{fill:#975ffa;}.o{fill:#965efa;}.p{fill:#965dfa;}.q{fill:#955cfa;}.r{fill:#955bfa;}.s{fill:#945bfa;}.t{fill:#945afa;}.u{fill:#9359fa;}.v{fill:#9358fa;}.w{fill:#9258fa;}.x{fill:#9257fa;}.y{fill:#9156fa;}.z{fill:#9155fa;}.aa{fill:#9055fa;}.ab{fill:#9054fa;}.ac{fill:#8f53fa;}.ad{fill:#8f52fa;}.ae{fill:#8e51fa;}.af{fill:#8d50fa;}.ag{fill:#8d4ffa;}.ah{fill:#8c4efa;}.ai{fill:#8b4dfa;}.aj{fill:#8b4cfa;}.ak{fill:#8a4bfa;}.al{fill:#8a4afa;}.am{fill:#894afa;}.an{fill:#8949fa;}.ao{fill:#8848fa;}.ap{fill:#8847fa;}.aq{fill:#8747fa;}.ar{fill:#8746fa;}.as{fill:#8645fa;}.at{fill:#8644fa;}.au{fill:#8543fa;}.av{fill:#8442fa;}.aw{fill:#8441fa;}.ax{fill:#8340fa;}.ay{fill:#823ffa;}.az{fill:#823efa;}.ba{fill:#813dfa;}.bb{fill:#813cfa;}.bc{fill:#803cf9;}.bd{fill:#803bf9;}.be{fill:#7f3af9;}.bf{fill:#7f39f9;}.bg{fill:#7e39f9;}.bh{fill:#7e38f9;}.bi{fill:#7d37f9;}.bj{fill:#7d36f9;}.bk{fill:#7c36f9;}.bl{fill:#7c35f9;}.bm{fill:#7b34f9;}.bn{fill:#7b33f9;}.bo{fill:#7a32f9;}.bp{fill:#7931f9;}.bq{fill:#7930f9;}.br{fill:#782ff9;}.bs{fill:#772ef9;}.bt{fill:#772df9;}.bu{fill:#762cf9;}.bv{fill:#762bf9;}.bw{fill:#752bf9;}.bx{fill:#752af9;}.by{fill:#7429f9;}.bz{fill:#7428f9;}.ca{fill:#7328f9;}.cb{fill:#7327f9;}.cc{fill:#7226f9;}.cd{fill:#7225f9;}.ce{fill:#7124f9;}.cf{fill:#7023f9;}.cg{fill:#7022f9;}.ch{fill:#6f21f9;}.ci{fill:#6e20f9;}.cj{fill:#6e1ff9;}.ck{fill:#6d1ef9;}.cl{fill:#6d1df9;}.cm{fill:#6c1df9;}.cn{fill:#6c1cf9;}.co{fill:#6b1bf9;}.cp{fill:#6b1af9;}.cq{fill:#6a1af9;}.cr{fill:#6a19f9;}.cs{fill:#6918f8;}.ct{fill:#6917f8;}.cu{fill:#6817f8;}.cv{fill:#6816f8;}.cw{fill:#6715f8;}.cx{fill:#6714f8;}.cy{fill:#6613f8;}.cz{fill:#6512f8;}.da{fill:#6511f8;}.db{fill:#6410f8;}.dc{fill:#630ff8;}.dd{fill:#630ef8;}.de{fill:#620df8;}.df{fill:#620cf8;}.dg{fill:#610cf8;}.dh{fill:#610bf8;}.di{fill:#600af8;}.dj{fill:#6009f8;}.dk{fill:#5f09f8;}.dl{fill:#5f08f8;}.dm{fill:#5e07f8;}</style></defs><circle class="a" cx="23.1" cy="23.1" r="23.1"/><circle class="b" cx="24.2" cy="26.2" r="23.1"/><circle class="c" cx="25.4" cy="29.2" r="23.1"/><circle class="d" cx="26.6" cy="32.2" r="23.1"/><circle class="e" cx="27.8" cy="35.2" r="23.1"/><circle class="f" cx="29.1" cy="38.2" r="23.1"/><circle class="g" cx="30.3" cy="41.2" r="23.1"/><circle class="h" cx="31.6" cy="44.2" r="23.1"/><circle class="i" cx="33" cy="47.2" r="23.1"/><circle class="j" cx="34.3" cy="50.1" r="23.1"/><circle class="k" cx="35.7" cy="53.1" r="23.1"/><circle class="k" cx="37.1" cy="56" r="23.1"/><circle class="l" cx="38.6" cy="58.9" r="23.1"/><circle class="m" cx="40.1" cy="61.8" r="23.1"/><circle class="n" cx="41.6" cy="64.7" r="23.1"/><circle class="n" cx="43.1" cy="67.6" r="23.1"/><circle class="o" cx="44.6" cy="70.4" r="23.1"/><circle class="p" cx="46.2" cy="73.3" r="23.1"/><circle class="q" cx="47.8" cy="76.1" r="23.1"/><circle class="r" cx="49.4" cy="78.9" r="23.1"/><circle class="s" cx="51.1" cy="81.7" r="23.1"/><circle class="t" cx="52.8" cy="84.5" r="23.1"/><circle class="u" cx="54.5" cy="87.2" r="23.1"/><circle class="v" cx="56.2" cy="90" r="23.1"/><circle class="w" cx="58" cy="92.7" r="23.1"/><circle class="x" cx="59.8" cy="95.4" r="23.1"/><circle class="y" cx="61.6" cy="98.2" r="23.1"/><circle class="z" cx="63.4" cy="100.8" r="23.1"/><circle class="aa" cx="65.3" cy="103.5" r="23.1"/><circle class="ab" cx="67.1" cy="106.2" r="23.1"/><circle class="ac" cx="69.1" cy="108.8" r="23.1"/><circle class="ad" cx="71" cy="111.4" r="23.1"/><circle class="ae" cx="72.9" cy="114" r="23.1"/><circle class="ae" cx="74.9" cy="116.6" r="23.1"/><circle class="af" cx="76.9" cy="119.1" r="23.1"/><circle class="ag" cx="78.9" cy="121.7" r="23.1"/><circle class="ah" cx="81" cy="124.2" r="23.1"/><circle class="ah" cx="83.1" cy="126.7" r="23.1"/><circle class="ai" cx="85.2" cy="129.2" r="23.1"/><circle class="aj" cx="87.3" cy="131.7" r="23.1"/><circle class="ak" cx="89.4" cy="134.1" r="23.1"/><circle class="al" cx="91.6" cy="136.5" r="23.1"/><circle class="am" cx="93.8" cy="138.9" r="23.1"/><circle class="an" cx="96" cy="141.3" r="23.1"/><circle class="ao" cx="98.2" cy="143.7" r="23.1"/><circle class="ap" cx="100.5" cy="146" r="23.1"/><circle class="aq" cx="102.8" cy="148.4" r="23.1"/><circle class="ar" cx="105.1" cy="150.7" r="23.1"/><circle class="as" cx="107.4" cy="152.9" r="23.1"/><circle class="at" cx="109.7" cy="155.2" r="23.1"/><circle class="au" cx="112.1" cy="157.4" r="23.1"/><circle class="au" cx="114.5" cy="159.6" r="23.1"/><circle class="av" cx="116.9" cy="161.8" r="23.1"/><circle class="aw" cx="119.3" cy="164" r="23.1"/><circle class="ax" cx="121.7" cy="166.1" r="23.1"/><circle class="ax" cx="124.2" cy="168.3" r="23.1"/><circle class="ay" cx="126.7" cy="170.4" r="23.1"/><circle class="az" cx="129.2" cy="172.4" r="23.1"/><circle class="ba" cx="131.7" cy="174.5" r="23.1"/><circle class="bb" cx="134.3" cy="176.5" r="23.1"/><circle class="bc" cx="136.8" cy="178.5" r="23.1"/><circle class="bd" cx="139.4" cy="180.5" r="23.1"/><circle class="be" cx="142.1" cy="182.4" r="23.1"/><circle class="bf" cx="144.7" cy="184.3" r="23.1"/><circle class="bg" cx="147.4" cy="186.2" r="23.1"/><circle class="bh" cx="150.1" cy="188" r="23.1"/><circle class="bi" cx="152.8" cy="189.8" r="23.1"/><circle class="bj" cx="155.5" cy="191.6" r="23.1"/><circle class="bk" cx="158.3" cy="193.3" r="23.1"/><circle class="bl" cx="161.1" cy="195" r="23.1"/><circle class="bm" cx="163.9" cy="196.6" r="23.1"/><circle class="bn" cx="166.7" cy="198.2" r="23.1"/><circle class="bo" cx="169.6" cy="199.8" r="23.1"/><circle class="bo" cx="172.5" cy="201.2" r="23.1"/><circle class="bp" cx="175.4" cy="202.7" r="23.1"/><circle class="bq" cx="178.3" cy="204.1" r="23.1"/><circle class="br" cx="181.3" cy="205.4" r="23.1"/><circle class="br" cx="184.2" cy="206.7" r="23.1"/><circle class="bs" cx="187.2" cy="207.9" r="23.1"/><circle class="bt" cx="190.3" cy="209" r="23.1"/><circle class="bu" cx="193.3" cy="210.1" r="23.1"/><circle class="bv" cx="196.4" cy="211.2" r="23.1"/><circle class="bw" cx="199.5" cy="212.1" r="23.1"/><circle class="bx" cx="202.6" cy="213" r="23.1"/><circle class="by" cx="205.8" cy="213.8" r="23.1"/><circle class="bz" cx="209" cy="214.6" r="23.1"/><circle class="ca" cx="212.2" cy="215.3" r="23.1"/><circle class="cb" cx="215.4" cy="215.9" r="23.1"/><circle class="cc" cx="218.6" cy="216.4" r="23.1"/><circle class="cd" cx="221.8" cy="216.8" r="23.1"/><circle class="ce" cx="225.1" cy="217.1" r="23.1"/><circle class="ce" cx="228.3" cy="217.4" r="23.1"/><circle class="cf" cx="231.6" cy="217.6" r="23.1"/><circle class="cg" cx="234.9" cy="217.7" r="23.1"/><circle class="ch" cx="238.1" cy="217.7" r="23.1"/><circle class="ch" cx="241.4" cy="217.6" r="23.1"/><circle class="ci" cx="244.6" cy="217.4" r="23.1"/><circle class="cj" cx="247.9" cy="217.2" r="23.1"/><circle class="ck" cx="251.1" cy="216.8" r="23.1"/><circle class="cl" cx="254.3" cy="216.3" r="23.1"/><circle class="cm" cx="257.5" cy="215.8" r="23.1"/><circle class="cn" cx="260.7" cy="215.2" r="23.1"/><circle class="co" cx="263.8" cy="214.4" r="23.1"/><circle class="cp" cx="267" cy="213.6" r="23.1"/><circle class="cq" cx="270" cy="212.6" r="23.1"/><circle class="cr" cx="273.1" cy="211.6" r="23.1"/><circle class="cs" cx="276.1" cy="210.5" r="23.1"/><circle class="ct" cx="279.1" cy="209.2" r="23.1"/><circle class="cu" cx="282.1" cy="207.8" r="23.1"/><circle class="cv" cx="285" cy="206.4" r="23.1"/><circle class="cw" cx="287.8" cy="204.8" r="23.1"/><circle class="cx" cx="290.6" cy="203.1" r="23.1"/><circle class="cy" cx="293.3" cy="201.3" r="23.1"/><circle class="cy" cx="296" cy="199.3" r="23.1"/><circle class="cz" cx="298.6" cy="197.2" r="23.1"/><circle class="da" cx="301.1" cy="195" r="23.1"/><circle class="db" cx="303.4" cy="192.7" r="23.1"/><circle class="db" cx="305.7" cy="190.3" r="23.1"/><circle class="dc" cx="307.8" cy="187.8" r="23.1"/><circle class="dd" cx="309.7" cy="185.2" r="23.1"/><circle class="de" cx="311.5" cy="182.5" r="23.1"/><circle class="df" cx="313.2" cy="179.7" r="23.1"/><circle class="dg" cx="314.6" cy="176.8" r="23.1"/><circle class="dh" cx="315.9" cy="173.9" r="23.1"/><circle class="di" cx="316.9" cy="170.9" r="23.1"/><circle class="dj" cx="317.8" cy="167.8" r="23.1"/><circle class="dk" cx="318.4" cy="164.7" r="23.1"/><circle class="dl" cx="318.8" cy="161.5" r="23.1"/><circle class="dm" cx="318.9" cy="158.3" r="23.1"/></svg>