<svg xmlns="http://www.w3.org/2000/svg" viewBox="0 0 399 483.5"><defs><style>.a{fill:#9e6afb;}.b{fill:#9e69fb;}.c{fill:#9d69fb;}.d{fill:#9d68fb;}.e{fill:#9c67fb;}.f{fill:#9c66fb;}.g{fill:#9b66fb;}.h{fill:#9b65fb;}.i{fill:#9a64fb;}.j{fill:#9a63fb;}.k{fill:#9962fb;}.l{fill:#9861fb;}.m{fill:#9860fb;}.n{fill:#975ffa;}.o{fill:#965efa;}.p{fill:#965dfa;}.q{fill:#955cfa;}.r{fill:#955bfa;}.s{fill:#945bfa;}.t{fill:#945afa;}.u{fill:#9359fa;}.v{fill:#9358fa;}.w{fill:#9258fa;}.x{fill:#9257fa;}.y{fill:#9156fa;}.z{fill:#9155fa;}.aa{fill:#9055fa;}.ab{fill:#9054fa;}.ac{fill:#8f53fa;}.ad{fill:#8f52fa;}.ae{fill:#8e51fa;}.af{fill:#8d50fa;}.ag{fill:#8d4ffa;}.ah{fill:#8c4efa;}.ai{fill:#8b4dfa;}.aj{fill:#8b4cfa;}.ak{fill:#8a4bfa;}.al{fill:#8a4afa;}.am{fill:#894afa;}.an{fill:#8949fa;}.ao{fill:#8848fa;}.ap{fill:#8847fa;}.aq{fill:#8747fa;}.ar{fill:#8746fa;}.as{fill:#8645fa;}.at{fill:#8644fa;}.au{fill:#8543fa;}.av{fill:#8442fa;}.aw{fill:#8441fa;}.ax{fill:#8340fa;}.ay{fill:#823ffa;}.az{fill:#823efa;}.ba{fill:#813dfa;}.bb{fill:#813cfa;}.bc{fill:#803cf9;}.bd{fill:#803bf9;}.be{fill:#7f3af9;}.bf{fill:#7f39f9;}.bg{fill:#7e39f9;}.bh{fill:#7e38f9;}.bi{fill:#7d37f9;}.bj{fill:#7d36f9;}.bk{fill:#7c36f9;}.bl{fill:#7c35f9;}.bm{fill:#7b34f9;}.bn{fill:#7b33f9;}.bo{fill:#7a32f9;}.bp{fill:#7931f9;}.bq{fill:#7930f9;}.br{fill:#782ff9;}.bs{fill:#772ef9;}.bt{fill:#772df9;}.bu{fill:#762cf9;}.bv{fill:#762bf9;}.bw{fill:#752bf9;}.bx{fill:#752af9;}.by{fill:#7429f9;}.bz{fill:#7428f9;}.ca{fill:#7328f9;}.cb{fill:#7327f9;}.cc{fill:#7226f9;}.cd{fill:#7225f9;}.ce{fill:#7124f9;}.cf{fill:#7023f9;}.cg{fill:#7022f9;}.ch{fill:#6f21f9;}.ci{fill:#6e20f9;}.cj{fill:#6e1ff9;}.ck{fill:#6d1ef9;}.cl{fill:#6d1df9;}.cm{fill:#6c1df9;}.cn{fill:#6c1cf9;}.co{fill:#6b1bf9;}.cp{fill:#6b1af9;}.cq{fill:#6a1af9;}.cr{fill:#6a19f9;}.cs{fill:#6918f8;}.ct{fill:#6917f8;}.cu{fill:#6817f8;}.cv{fill:#6816f8;}.cw{fill:#6715f8;}.cx{fill:#6714f8;}.cy{fill:#6613f8;}.cz{fill:#6512f8;}.da{fill:#6511f8;}.db{fill:#6410f8;}.dc{fill:#630ff8;}.dd{fill:#630ef8;}.de{fill:#620df8;}.df{fill:#620cf8;}.dg{fill:#610cf8;}.dh{fill:#610bf8;}.di{fill:#600af8;}.dj{fill:#6009f8;}.dk{fill:#5f09f8;}.dl{fill:#5f08f8;}.dm{fill:#5e07f8;}</style></defs><circle class="a" cx="23.1" cy="23.1" r="23.1"/><circle class="b" cx="25.5" cy="29.5" r="23.1"/><circle class="c" cx="28.1" cy="35.8" r="23.1"/><circle class="d" cx="30.7" cy="42.1" r="23.1"/><circle class="e" cx="33.5" cy="48.4" r="23.1"/><circle class="f" cx="36.4" cy="54.5" r="23.1"/><circle class="g" cx="39.5" cy="60.7" r="23.1"/><circle class="h" cx="42.6" cy="66.7" r="23.1"/><circle class="i" cx="45.9" cy="72.7" r="23.1"/><circle class="j" cx="49.3" cy="78.6" r="23.1"/><circle class="k" cx="52.8" cy="84.5" r="23.1"/><circle class="k" cx="56.4" cy="90.3" r="23.1"/><circle class="l" cx="60.1" cy="96" r="23.1"/><circle class="m" cx="64" cy="101.7" r="23.1"/><circle class="n" cx="67.9" cy="107.2" r="23.1"/><circle class="n" cx="72" cy="112.7" r="23.1"/><circle class="o" cx="76.1" cy="118.2" r="23.1"/><circle class="p" cx="80.4" cy="123.5" r="23.1"/><circle class="q" cx="84.8" cy="128.7" r="23.1"/><circle class="r" cx="89.3" cy="133.9" r="23.1"/><circle class="s" cx="93.8" cy="139" r="23.1"/><circle class="t" cx="98.5" cy="144" r="23.1"/><circle class="u" cx="103.3" cy="148.9" r="23.1"/><circle class="v" cx="108.1" cy="153.7" r="23.1"/><circle class="w" cx="113.1" cy="158.4" r="23.1"/><circle class="x" cx="118.1" cy="163" r="23.1"/><circle class="y" cx="123.3" cy="167.5" r="23.1"/><circle class="z" cx="128.5" cy="171.9" r="23.1"/><circle class="aa" cx="133.8" cy="176.2" r="23.1"/><circle class="ab" cx="139.3" cy="180.3" r="23.1"/><circle class="ac" cx="144.8" cy="184.4" r="23.1"/><circle class="ad" cx="150.4" cy="188.3" r="23.1"/><circle class="ae" cx="156.2" cy="192" r="23.1"/><circle class="ae" cx="162" cy="195.5" r="23.1"/><circle class="af" cx="168" cy="198.9" r="23.1"/><circle class="ag" cx="174" cy="202" r="23.1"/><circle class="ah" cx="180.2" cy="204.9" r="23.1"/><circle class="ah" cx="186.5" cy="207.6" r="23.1"/><circle class="ai" cx="192.8" cy="210" r="23.1"/><circle class="aj" cx="199.3" cy="212.1" r="23.1"/><circle class="ak" cx="205.9" cy="213.9" r="23.1"/><circle class="al" cx="212.6" cy="215.3" r="23.1"/><circle class="am" cx="219.4" cy="216.5" r="23.1"/><circle class="an" cx="226.2" cy="217.2" r="23.1"/><circle class="ao" cx="233.1" cy="217.6" r="23.1"/><circle class="ap" cx="239.9" cy="217.6" r="23.1"/><circle class="aq" cx="246.7" cy="217.3" r="23.1"/><circle class="ar" cx="253.5" cy="216.5" r="23.1"/><circle class="as" cx="260.2" cy="215.3" r="23.1"/><circle class="at" cx="266.8" cy="213.6" r="23.1"/><circle class="au" cx="273.3" cy="211.5" r="23.1"/><circle class="au" cx="279.6" cy="209" r="23.1"/><circle class="av" cx="285.7" cy="206" r="23.1"/><circle class="aw" cx="291.6" cy="202.5" r="23.1"/><circle class="ax" cx="297.2" cy="198.4" r="23.1"/><circle class="ax" cx="302.4" cy="193.8" r="23.1"/><circle class="ay" cx="307.1" cy="188.7" r="23.1"/><circle class="az" cx="311.1" cy="183.2" r="23.1"/><circle class="ba" cx="314.4" cy="177.3" r="23.1"/><circle class="bb" cx="316.9" cy="171" r="23.1"/><circle class="bc" cx="318.4" cy="164.5" r="23.1"/><circle class="bd" cx="318.9" cy="157.8" r="23.1"/><circle class="be" cx="318.1" cy="151" r="23.1"/><circle class="bf" cx="316.2" cy="144.5" r="23.1"/><circle class="bg" cx="313.2" cy="138.3" r="23.1"/><circle class="bh" cx="309.2" cy="132.8" r="23.1"/><circle class="bi" cx="304.4" cy="127.9" r="23.1"/><circle class="bj" cx="298.9" cy="123.8" r="23.1"/><circle class="bk" cx="292.9" cy="120.7" r="23.1"/><circle class="bl" cx="286.4" cy="118.7" r="23.1"/><circle class="bm" cx="279.6" cy="118" r="23.1"/><circle class="bn" cx="272.8" cy="118.6" r="23.1"/><circle class="bo" cx="266.2" cy="120.4" r="23.1"/><circle class="bo" cx="260" cy="123.3" r="23.1"/><circle class="bp" cx="254.3" cy="127.1" r="23.1"/><circle class="bq" cx="249.4" cy="131.8" r="23.1"/><circle class="br" cx="245.3" cy="137.3" r="23.1"/><circle class="br" cx="242.2" cy="143.3" r="23.1"/><circle class="bs" cx="240.3" cy="149.9" r="23.1"/><circle class="bt" cx="239.6" cy="156.6" r="23.1"/><circle class="bu" cx="240" cy="163.2" r="23.1"/><circle class="bv" cx="241.3" cy="169.8" r="23.1"/><circle class="bw" cx="243.3" cy="176.3" r="23.1"/><circle class="bx" cx="245.9" cy="182.7" r="23.1"/><circle class="by" cx="248.9" cy="188.9" r="23.1"/><circle class="bz" cx="252.2" cy="195.1" r="23.1"/><circle class="ca" cx="255.6" cy="201.1" r="23.1"/><circle class="cb" cx="259.1" cy="207" r="23.1"/><circle class="cc" cx="262.5" cy="212.9" r="23.1"/><circle class="cd" cx="265.9" cy="218.8" r="23.1"/><circle class="ce" cx="269.4" cy="224.7" r="23.1"/><circle class="ce" cx="272.8" cy="230.7" r="23.1"/><circle class="cf" cx="276.2" cy="236.6" r="23.1"/><circle class="cg" cx="279.6" cy="242.5" r="23.1"/><circle class="ch" cx="283" cy="248.5" r="23.1"/><circle class="ch" cx="286.4" cy="254.5" r="23.1"/><circle class="ci" cx="289.7" cy="260.4" r="23.1"/><circle class="cj" cx="293.1" cy="266.4" r="23.1"/><circle class="ck" cx="296.4" cy="272.4" r="23.1"/><circle class="cl" cx="299.7" cy="278.4" r="23.1"/><circle class="cm" cx="303" cy="284.5" r="23.1"/><circle class="cn" cx="306.2" cy="290.5" r="23.1"/><circle class="co" cx="309.4" cy="296.5" r="23.1"/><circle class="cp" cx="312.6" cy="302.6" r="23.1"/><circle class="cq" cx="315.8" cy="308.7" r="23.1"/><circle class="cr" cx="318.9" cy="314.8" r="23.1"/><circle class="cs" cx="321.9" cy="320.9" r="23.1"/><circle class="ct" cx="325" cy="327" r="23.1"/><circle class="cu" cx="328" cy="333.1" r="23.1"/><circle class="cv" cx="330.9" cy="339.3" r="23.1"/><circle class="cw" cx="333.8" cy="345.5" r="23.1"/><circle class="cx" cx="336.7" cy="351.7" r="23.1"/><circle class="cy" cx="339.5" cy="357.9" r="23.1"/><circle class="cy" cx="342.3" cy="364.1" r="23.1"/><circle class="cz" cx="345" cy="370.4" r="23.1"/><circle class="da" cx="347.6" cy="376.6" r="23.1"/><circle class="db" cx="350.2" cy="382.9" r="23.1"/><circle class="db" cx="352.7" cy="389.3" r="23.1"/><circle class="dc" cx="355.2" cy="395.6" r="23.1"/><circle class="dd" cx="357.6" cy="402" r="23.1"/><circle class="de" cx="359.9" cy="408.4" r="23.1"/><circle class="df" cx="362.2" cy="414.8" r="23.1"/><circle class="dg" cx="364.4" cy="421.2" r="23.1"/><circle class="dh" cx="366.5" cy="427.7" r="23.1"/><circle class="di" cx="368.5" cy="434.2" r="23.1"/><circle class="dj" cx="370.5" cy="440.7" r="23.1"/><circle class="dk" cx="372.4" cy="447.3" r="23.1"/><circle class="dl" cx="374.2" cy="453.8" r="23.1"/><circle class="dm" cx="375.9" cy="460.4" r="23.1"/></svg>