<svg xmlns="http://www.w3.org/2000/svg" width="103.607" height="176.176" viewBox="0 0 103.607 176.176">
  <g id="Group_19" data-name="Group 19" transform="translate(-45.872 -63.55)">
    <g id="Group_2" data-name="Group 2">
      <g id="Group_1" data-name="Group 1">
        <path id="Path_1" data-name="Path 1" d="M102.281,141.816a5.725,5.725,0,0,1-5.986,2.6c-2.149-.373-3.522-1.794-4.983-3.281a.519.519,0,0,0-.86.5c1.222,6.225,10.8,6.38,13.2.978C104.054,141.705,102.805,140.912,102.281,141.816Z" fill="#333"/>
        <path id="Path_2" data-name="Path 2" d="M96.027,130.13a2.806,2.806,0,0,0,2.893.033,1.226,1.226,0,0,0,.552-1.357,1.261,1.261,0,0,0-1.159-.882,5.926,5.926,0,0,0-1.462.011,3.7,3.7,0,0,0-.549.091A1.165,1.165,0,0,0,96.027,130.13Z" fill="#333"/>
        <path id="Path_3" data-name="Path 3" d="M86.929,119.127c-2.7-1-8.121-1.468-9.917,1.394a.548.548,0,0,0,.468.815,6.842,6.842,0,0,0,2.27-.314,9.109,9.109,0,0,0-.79,2.935c-.2,2.328-.216,5.909,2.367,6.981,2.424,1.007,3.811-1.421,4.176-3.454.312-1.734.449-4.716-.468-6.639q.661.144,1.325.346C87.7,121.6,88.2,119.6,86.929,119.127Z" fill="#333"/>
        <path id="Path_4" data-name="Path 4" d="M120.3,119.127c-2.7-1-8.121-1.468-9.917,1.394a.548.548,0,0,0,.468.815,6.838,6.838,0,0,0,2.27-.314,9.108,9.108,0,0,0-.79,2.935c-.2,2.328-.216,5.909,2.367,6.981,2.424,1.007,3.811-1.421,4.176-3.454.312-1.734.449-4.716-.468-6.639q.662.144,1.325.346C121.066,121.6,121.568,119.6,120.3,119.127Z" fill="#333"/>
        <path id="Path_5" data-name="Path 5" d="M87.753,112.663a16.912,16.912,0,0,0-10.858.059,1.23,1.23,0,0,0,.653,2.37,22.585,22.585,0,0,1,5.491-.588,27.32,27.32,0,0,0,4.714.112C88.86,114.462,88.554,112.977,87.753,112.663Z" fill="#333"/>
        <path id="Path_6" data-name="Path 6" d="M121.421,112.722a16.912,16.912,0,0,0-10.858-.059c-.8.314-1.108,1.8,0,1.953a27.325,27.325,0,0,0,4.714-.112,22.577,22.577,0,0,1,5.49.588A1.23,1.23,0,0,0,121.421,112.722Z" fill="#333"/>
        <path id="Path_7" data-name="Path 7" d="M149.2,99.326a37.342,37.342,0,0,0-1.99-9.93,32.975,32.975,0,0,0-5.06-8.37c-4.04-5.19-8.13-9.76-14.47-12.07-5.43-1.97-12.74-2.86-18.37-1.05-12.45-6.06-27.56-6.21-38.98,2.18-5.55,4.09-10.18,9.38-14.47,14.73-4.26,5.31-8.31,11.21-9.71,17.99-.64,3.1-.31,6.44,2.62,8.25,2.96,1.83,6.38,1.16,9.49.11q1.65,5.445,3.31,10.87a7.557,7.557,0,0,0-2.54,6.41,12.544,12.544,0,0,0,11.7,11.66c.38,3.84.84,7.78,3.2,10.96,2.53,3.39,6.43,5.87,10.03,8,.57.35,1.16.69,1.76,1.03-.01.65-.01,1.3-.03,1.92-.08,1.77-.11,3.55-.19,5.33-.01.43-.03.85-.05,1.28-.18,3.45-7.47,5.63-10.2,6.71-3.44,1.37-7.14,2.54-10.3,4.51a13.636,13.636,0,0,0-5.51,7.19,228.053,228.053,0,0,0-12.81,48.94c-.24,1.57,2.16,2.25,2.4.67a240.969,240.969,0,0,1,5.31-25.67c2.16-8.14,4.49-16.57,7.89-24.29,1.83-4.14,5.56-5.72,9.52-7.33.17-.06.34-.13.51-.2a191.12,191.12,0,0,0-6.09,18.63c-.5,1.68-2.42,5.08-.32,6.32,1.19.7,3.44.66,4.76.88,1.06.17,2.12.33,3.18.49-2.09,1.55-4.17,3.09-6.26,4.63-2.27,1.68-1.63,2.78-.61,5.25,2.58,6.27,5.17,12.88,8.72,18.67a1.321,1.321,0,0,0,.21.25c-.05,1.49-.14,2.97-.29,4.43-.13,1.34,2.18,1.38,2.12,0-.21-5.12.18-10.32.23-15.45q.09-7.95.03-15.89-.045-7.74-.24-15.46c-.06-2.58-.11-5.16-.24-7.73a42.376,42.376,0,0,0-.54-6.85c1.01-.41,2.01-.83,3-1.27.76,4.51,1.91,8.93,2.97,13.37a1.062,1.062,0,0,0,1.77.47,17.708,17.708,0,0,1,1.47-1.64,15.759,15.759,0,0,1,3.81-2.82,54.447,54.447,0,0,0,1.72,5.97,4.206,4.206,0,0,0,.36.96c-1.71,8.42-2.25,17.16-3.24,25.69-.42,3.63-1.48,7.71-.6,11.35.8,3.29,3.09,5.93,5.28,8.4a1.135,1.135,0,0,0,1.36.18c2.61-1.88,5.41-4.24,6.97-7.12.87-1.61.37-3.55.2-5.27l-.63-6.45q-1.275-12.93-2.54-25.85a2.255,2.255,0,0,0,.8-1.23,39.369,39.369,0,0,0,1.42-6.84,19.707,19.707,0,0,1,5.09,5.4c.11.15.21.29.31.43a1.006,1.006,0,0,0,1.71,0c2.78-4.65,3.89-9.88,4.73-15.16.97.44,1.95.85,2.93,1.25a42.476,42.476,0,0,0-.58,7.03c-.12,2.57-.18,5.15-.24,7.73q-.18,7.725-.24,15.46c-.03,5.29-.03,10.59.03,15.89.05,5.13.44,10.33.23,15.45-.05,1.38,2.25,1.34,2.12,0-.15-1.46-.23-2.94-.29-4.43a1.033,1.033,0,0,0,.21-.25c3.56-5.79,6.14-12.4,8.72-18.67,1.02-2.47,1.67-3.57-.61-5.25-2.09-1.54-4.17-3.08-6.26-4.63,1.06-.16,2.12-.32,3.18-.49,1.32-.22,3.58-.18,4.76-.88,2.1-1.24.18-4.64-.32-6.32a183.668,183.668,0,0,0-6.18-18.85c.36.14.71.28,1.07.42,3.96,1.61,7.69,3.19,9.51,7.33,3.41,7.72,5.73,16.15,7.9,24.29a240.971,240.971,0,0,1,5.31,25.67c.24,1.58,2.64.9,2.4-.67a228.053,228.053,0,0,0-12.81-48.94,13.636,13.636,0,0,0-5.51-7.19c-3.16-1.97-6.86-3.14-10.3-4.51-2.73-1.08-10.02-3.26-10.2-6.71-.02-.43-.04-.85-.05-1.28-.08-1.78-.11-3.56-.19-5.33,0-.15-.01-.3-.01-.44.61-.28,1.21-.57,1.8-.86,3.96-1.93,8.47-4.28,11.42-7.63,2.91-3.29,3.26-8.01,4.01-12.15.11-.59.22-1.19.32-1.79,6.39-.44,13.48-6.95,12.59-13.69a8.245,8.245,0,0,0-.86-2.75,1.109,1.109,0,0,0,.24-.31,60.534,60.534,0,0,0,5.23-13.01c2.26.14,4.66-.08,6.12-2.04C149.986,105.106,149.436,101.886,149.2,99.326Zm-81.23,103.14c-1.14-.17-.99.13-.77-.95.14-.68.37-1.34.56-2,.41-1.47.84-2.93,1.28-4.39,1.67-5.61,3.71-11.12,5.24-16.77.48-.18.96-.37,1.44-.56a53.7,53.7,0,0,0-.03,5.95c.04,2.58.12,5.15.17,7.73q.135,6.09.17,12.18C73.346,203.246,70.656,202.866,67.966,202.466Zm8.01,20.36c-.03,2.31-.02,4.65-.03,6.99-1.86-3.98-3.92-7.88-5.67-11.9q-.915-2.115-1.79-4.25c-.39-.94-.56-.88.1-1.75a8.1,8.1,0,0,1,1.62-1.2c1.94-1.43,3.89-2.84,5.84-4.26,0,.3.01.6.01.91Q76.086,215.091,75.976,222.826Zm40.85-31.35c.06-2.58.14-5.15.17-7.73a48.374,48.374,0,0,0-.04-6.14c.46.18.93.37,1.39.55,1.54,5.72,3.61,11.3,5.31,16.97.43,1.46.86,2.92,1.27,4.39.19.66.42,1.32.56,2,.23,1.08.37.78-.77.95-2.69.4-5.37.78-8.05,1.19Q116.711,197.566,116.826,191.476Zm-.19,14.98c1.95,1.42,3.9,2.83,5.85,4.26a8.717,8.717,0,0,1,1.62,1.2c.66.87.48.81.09,1.75q-.87,2.13-1.79,4.25c-1.75,4.02-3.8,7.92-5.66,11.9-.02-2.34,0-4.68-.04-6.99q-.1-7.74-.07-15.46Zm-55.15-79.05a4.529,4.529,0,0,1,5.91-4.28c.23.07.95.56,1.62.81.45,4.64.98,9.27,1.47,13.85C65.5,136.876,61.116,132.886,61.486,127.406Zm24.64,57.91a17.919,17.919,0,0,0-1.68,1.57c-.93-3.92-1.61-7.9-2.37-11.85a23.743,23.743,0,0,0,3.11-1.76c1.38,1.72,3.11,3.24,4.61,4.79.39.4.79.84,1.21,1.28a30.241,30.241,0,0,0,2.56,2.5A14.983,14.983,0,0,0,86.126,185.316Zm1.85-23.3c0-.23.01-.47.02-.7a24.872,24.872,0,0,0,8.35,2.75,18.606,18.606,0,0,0,8.82-1.52c0,1.6-.02,3.21.03,4.8,0,.43.02.85.04,1.28a5.487,5.487,0,0,0,.93,2.9c-1.77,2-3.47,4.07-5.29,6.04-.56.61-1.13,1.2-1.72,1.78-.4.39-.81.78-1.23,1.15-1.51,1.35-2.4.25-3.7-.89-.1-.09-.2-.17-.29-.26-1.83-1.64-3.47-3.48-5.21-5.21a25.08,25.08,0,0,0-2.13-2.11,5.464,5.464,0,0,0,1.32-3.4c.02-.43.04-.85.05-1.28C88.016,165.576,87.976,163.786,87.976,162.016Zm11.88,65.3c.21,2.32-.52,3.24-2.07,4.95a29.478,29.478,0,0,1-3.39,3.22c-2.11-2.41-4.26-5.12-4.38-8.43-.13-3.66.72-7.52,1.14-11.15.86-7.44,2.1-14.97,2.4-22.46a20.261,20.261,0,0,0,2.42.12c.21.01.41.02.6.04l2.19,22.53C99.126,219.856,99.516,223.586,99.856,227.316Zm-1.5-38.26a11.635,11.635,0,0,1-.56,2.62c-.28.25-2.13-.1-2.55-.12-1.28-.06-1.42-.24-1.91-1.39-.34-.79-.48-1.71-.75-2.52a13.644,13.644,0,0,0-1.16-2.89,19.214,19.214,0,0,1,3.33-.96c.49-.11.95-.16,1.38-.29.13.03.27.06.45.11.91.23,1.77.41,2.62.71C98.986,185.916,98.716,187.486,98.356,189.056Zm9.28-16.02a19.826,19.826,0,0,0,3.39,1.97c-.74,4.73-1.65,9.44-3.85,13.7-.34-.46-.69-.92-1.05-1.37a17.029,17.029,0,0,0-3.38-3.35,10.614,10.614,0,0,0-3.34-1.64c-.08-.02-.16-.03-.23-.05.82-.73,1.57-1.61,2.13-2.16.27-.26.53-.52.79-.79C104.056,177.356,105.876,175.206,107.636,173.036Zm16.28-40.29c-.74,4.52-1.27,9.12-2.21,13.6-1.07,5.04-4.6,7.45-8.79,9.96a41.206,41.206,0,0,1-11.99,5.29c-4.71,1.02-9.04-.83-13.13-3.01a43.823,43.823,0,0,1-10.58-7.34c-3.31-3.33-3.73-7.67-4.18-12.1a1.7,1.7,0,0,0-.04-.38c-.01-.1-.02-.21-.03-.31-1.15-10.84-1.5-21.79-2.83-32.59a.992.992,0,0,0-.06-.26c.1-.09.2-.18.3-.26a43.678,43.678,0,0,0,7.82-8.53c.06,3.16.8,6.43,4.42,5.23,2.28-.75,3.98-3.08,5.54-4.76q2.55-2.76,4.93-5.67a40.08,40.08,0,0,0,2.8,7.14c1.14,2.24,2.63,5.53,5.07,6.61,4.02,1.78,5-1.83,5.04-5.63,1.67,2.86,3.96,5.34,6.74,4.47,1.92-.61,2.49-2.58,2.77-4.37.18-1.19.31-2.38.39-3.58a16.774,16.774,0,0,0,6.66,7.22,12.992,12.992,0,0,0,5.63,1.6C126.806,114.306,125.436,123.536,123.916,132.746Zm11.12-4.37c-1.36,4.56-5.24,7.37-9.62,8.51q1.245-7.095,2.37-14.21a4.32,4.32,0,0,1,5.21-.87C135.206,123.1,135.716,126.106,135.036,128.376Zm10.27-21.43a8.939,8.939,0,0,1-3.92.17,1.1,1.1,0,0,0-1.07.81,58.031,58.031,0,0,1-5.02,12.84,5.986,5.986,0,0,0-2.88-1.54,5.72,5.72,0,0,0-4.19.67q1.155-7.455,2.19-14.93a10.851,10.851,0,0,0,5.29-2.3c1.27-1.02-.53-2.79-1.78-1.79-3.22,2.58-7.94,2.04-11.19-.19-3.53-2.41-5.54-6.54-6.87-10.48-.38-1.14-2.27-1.03-2.19.29a46.209,46.209,0,0,1,.02,5.52c-.1,1.56,0,3.62-.74,5.03-2.15,4.1-6.92-6.04-7.48-7.54a1.073,1.073,0,0,0-2.07.56c.33,2.16.85,5.07.34,7.23-.99,4.22-3.52.36-4.6-1.44a37.833,37.833,0,0,1-4.42-11.01,1.152,1.152,0,0,0-1.91-.51q-3.78,4.71-7.97,9.05c-1,1.03-3.61,4.12-4.29,1.18-.41-1.77.07-4.13.13-5.94a1.178,1.178,0,0,0-2.18-.59,45.069,45.069,0,0,1-5.58,7.66c-.98,1.07-2.01,2.09-3.08,3.08-.53.49-1.08.97-1.63,1.44-.22.18-4.1,3.08-3.84,1.03.11-.82-1.07-.81-1.33-.18a2.336,2.336,0,0,0,1.72,3.13,4.234,4.234,0,0,0,3.28-.96c.03,4.75.33,9.54.75,14.31a6.1,6.1,0,0,0-4.84-.73q-1.8-5.835-3.61-11.66a1.3,1.3,0,0,0-1.59-.9c-3.74,1.38-10.89,3.04-10.49-3.38.24-3.78,2.13-7.63,3.96-10.86a82.712,82.712,0,0,1,13.75-17.59c5.39-5.35,11.77-9.57,19.4-10.75,7.88-1.21,15.55.74,23.02,3.06a.76.76,0,0,0,.76.83c5.21.27,10.17-.48,15.33.84,5.59,1.42,9.82,4.57,13.46,8.96,3.88,4.7,7.3,9.22,8.45,15.34a46.245,46.245,0,0,1,.85,8.38C147.246,104.646,146.946,106.306,145.306,106.946Z" fill="#333"/>
        <path id="Path_8" data-name="Path 8" d="M147.246,103.086c0,1.56-.3,3.22-1.94,3.86a8.939,8.939,0,0,1-3.92.17,1.1,1.1,0,0,0-1.07.81,58.031,58.031,0,0,1-5.02,12.84,5.986,5.986,0,0,0-2.88-1.54,5.72,5.72,0,0,0-4.19.67q1.155-7.455,2.19-14.93a10.851,10.851,0,0,0,5.29-2.3c1.27-1.02-.53-2.79-1.78-1.79-3.22,2.58-7.94,2.04-11.19-.19-3.53-2.41-5.54-6.54-6.87-10.48-.38-1.14-2.27-1.03-2.19.29a46.209,46.209,0,0,1,.02,5.52c-.1,1.56,0,3.62-.74,5.03-2.15,4.1-6.92-6.04-7.48-7.54a1.073,1.073,0,0,0-2.07.56c.33,2.16.85,5.07.34,7.23-.99,4.22-3.52.36-4.6-1.44a37.833,37.833,0,0,1-4.42-11.01,1.152,1.152,0,0,0-1.91-.51q-3.78,4.71-7.97,9.05c-1,1.03-3.61,4.12-4.29,1.18-.41-1.77.07-4.13.13-5.94a1.178,1.178,0,0,0-2.18-.59,45.069,45.069,0,0,1-5.58,7.66c-.98,1.07-2.01,2.09-3.08,3.08-.53.49-1.08.97-1.63,1.44-.22.18-4.1,3.08-3.84,1.03.11-.82-1.07-.81-1.33-.18a2.336,2.336,0,0,0,1.72,3.13,4.234,4.234,0,0,0,3.28-.96c.03,4.75.33,9.54.75,14.31a6.1,6.1,0,0,0-4.84-.73q-1.8-5.835-3.61-11.66a1.3,1.3,0,0,0-1.59-.9c-3.74,1.38-10.89,3.04-10.49-3.38.24-3.78,2.13-7.63,3.96-10.86a82.712,82.712,0,0,1,13.75-17.59c5.39-5.35,11.77-9.57,19.4-10.75,7.88-1.21,15.55.74,23.02,3.06a.76.76,0,0,0,.76.83c5.21.27,10.17-.48,15.33.84,5.59,1.42,9.82,4.57,13.46,8.96,3.88,4.7,7.3,9.22,8.45,15.34A46.245,46.245,0,0,1,147.246,103.086Z" fill="#333"/>
      </g>
      <path id="Path_9" data-name="Path 9" d="M97.786,232.266a29.478,29.478,0,0,1-3.39,3.22c-2.11-2.41-4.26-5.12-4.38-8.43-.13-3.66.72-7.52,1.14-11.15.86-7.44,2.1-14.97,2.4-22.46a20.261,20.261,0,0,0,2.42.12c.21.01.41.02.6.04l2.19,22.53c.36,3.72.75,7.45,1.09,11.18C100.066,229.636,99.336,230.556,97.786,232.266Z" fill="#333"/>
      <path id="Path_10" data-name="Path 10" d="M99.206,184.326c-.22,1.59-.49,3.16-.85,4.73a11.635,11.635,0,0,1-.56,2.62c-.28.25-2.13-.1-2.55-.12-1.28-.06-1.42-.24-1.91-1.39-.34-.79-.48-1.71-.75-2.52a13.644,13.644,0,0,0-1.16-2.89,19.214,19.214,0,0,1,3.33-.96c.49-.11.95-.16,1.38-.29.13.03.27.06.45.11C97.5,183.846,98.356,184.026,99.206,184.326Z" fill="#333"/>
    </g>
    <path id="Path_11" data-name="Path 11" d="M85.123,136.535a4.287,4.287,0,0,0-4.382-2.585c-.114.012-.228.025-.342.044a6.512,6.512,0,0,1-.686.028,4.518,4.518,0,0,0-3.059,1.267,4.327,4.327,0,0,0,0,6.119,4.443,4.443,0,0,0,3.059,1.267,7.43,7.43,0,0,0,3.675-.846A4.253,4.253,0,0,0,85.123,136.535Z" fill="#e5b5b5"/>
    <path id="Path_12" data-name="Path 12" d="M121.335,135.826a3.743,3.743,0,0,0-1.6-1.876l-.937-.4a3.958,3.958,0,0,0-1.629-.092,7.162,7.162,0,0,0-2.793.12,4.282,4.282,0,0,0-2.543,1.956,4.382,4.382,0,0,0-.505,2.714,4.039,4.039,0,0,0,1.17,2.443,4.146,4.146,0,0,0,3.009,1.247c.04,0,.078.005.116.006a4.515,4.515,0,0,0,3.061-.474,4.312,4.312,0,0,0,.822-.641c.075-.038.155-.07.229-.109A3.914,3.914,0,0,0,121.335,135.826Z" fill="#e5b5b5"/>
  </g>
</svg>
