<svg xmlns="http://www.w3.org/2000/svg" width="100.104" height="175.627" viewBox="0 0 100.104 175.627">
  <g id="Group_6" data-name="Group 6" transform="translate(-197.1 -64.102)">
    <g id="Group_5" data-name="Group 5">
      <g id="Group_4" data-name="Group 4">
        <path id="Path_13" data-name="Path 13" d="M284.216,188.726c-1.19-3.02-2.72-5.47-5.51-7.2-3.17-1.96-6.86-3.14-10.31-4.5-2.73-1.08-10.02-3.27-10.2-6.71-.03-.66-.06-1.31-.08-1.97-.05-1.55-.08-3.1-.15-4.64-.01-.15-.01-.3-.01-.45.6-.27,1.2-.56,1.79-.85,3.96-1.93,8.47-4.28,11.43-7.63,2.9-3.29,3.26-8.01,4.01-12.15.1-.6.21-1.2.32-1.79,6.39-.44,13.48-6.95,12.59-13.69a8.108,8.108,0,0,0-1.68-4.01,2.086,2.086,0,0,0,.14-.3c1.86-6.46,10.5-13.2,6.37-20.22a8.392,8.392,0,0,0,4.22-8.48c-.48-4.43-3.48-7.79-6.66-10.66,2.1-2.99,1.32-7.12-.56-10.14-2.46-3.93-6.65-6.36-11.05-7.51a44.688,44.688,0,0,0-15.55-.92,20.922,20.922,0,0,0-11.8,4.58c-2.56-3.15-6.74-4.37-10.65-4.9a52.965,52.965,0,0,0-15.14.12c-3.79.62-8.23,2.12-10.07,5.81a6.483,6.483,0,0,0,.22,6.28c-3.47.41-6.73,3.09-8.48,5.98-2.17,3.6-1.06,6.87,1.17,9.79a7.7,7.7,0,0,0-5.36,10.59,11.764,11.764,0,0,0,2.36,3.52c.53.55,1.17.96,1.72,1.48,1.15,1.09,1.38,2.43,1.81,3.86l3.45,11.34a7.4,7.4,0,0,0-3.04,6.77,12.546,12.546,0,0,0,11.7,11.67c.39,3.84.84,7.78,3.21,10.96,2.53,3.39,6.43,5.87,10.02,8,.58.34,1.17.69,1.77,1.02-.02.66-.01,1.31-.04,1.93-.07,1.54-.1,3.09-.15,4.64-.02.66-.05,1.31-.08,1.97-.18,3.44-7.47,5.63-10.2,6.71-3.45,1.36-7.14,2.54-10.31,4.5a13.671,13.671,0,0,0-5.51,7.2,228.054,228.054,0,0,0-12.81,48.94c-.23,1.57,2.16,2.24,2.4.66a238.879,238.879,0,0,1,5.32-25.66c2.16-8.14,4.49-16.57,7.89-24.29a10.545,10.545,0,0,1,3.66-4.41c-.39,3.73-.03,7.71-.07,11.4-.05,4.82-.17,9.63-.24,14.45-.14,9.49-.14,18.98.65,28.44.11,1.39,2.31,1.41,2.19,0-.78-9.46-.78-18.95-.63-28.44.07-4.67.16-9.35.18-14.03.03-4.13.44-8.75-.39-12.86a40.8,40.8,0,0,1,4.17-1.88c.09-.03.18-.07.27-.11-.5,4.06-.19,8.35-.17,12.4q.045,7.545.16,15.11c.16,9.94.39,19.87.85,29.79.06,1.38,2.19,1.39,2.15,0-.28-9.93-.6-19.86-.77-29.79q-.12-7.335-.18-14.68c-.03-4.42.33-9.11-.3-13.52.81-.31,1.62-.63,2.42-.95,2.33,8.54,12.01,14.72,20.54,14.48,4.8-.13,10.06-1.38,13.96-4.27a23.73,23.73,0,0,0,7.33-9.8c.52.21,1.05.42,1.58.62-.2,4.59.16,9.25.33,13.83.18,5,.36,9.99.51,14.98q.465,14.76.77,29.53a1.016,1.016,0,0,0,2.03,0q-.3-14.985-.77-29.96-.225-7.275-.5-14.55c-.16-4.37-.2-8.8-.69-13.16a1.123,1.123,0,0,0,.13.05c1.32.54,2.61,1.07,3.81,1.69a17.771,17.771,0,0,0-.19,4.78q.09,3.6.28,7.2c.27,4.95.63,9.89.94,14.84a231.639,231.639,0,0,1,.37,29.22c-.08,1.27,1.9,1.27,1.98,0a229.787,229.787,0,0,0-.38-29.22c-.3-4.81-.66-9.61-.98-14.41-.17-2.4-.34-4.81-.5-7.21a30.331,30.331,0,0,0-.36-4.55,10.872,10.872,0,0,1,4.55,4.99c3.4,7.72,5.73,16.15,7.89,24.29a241.3,241.3,0,0,1,5.31,25.66c.24,1.58,2.64.91,2.4-.66A228.03,228.03,0,0,0,284.216,188.726Zm-25.14-13.34c-.02.05-.05.09-.07.15a71.98,71.98,0,0,1-3.91,9.92,29.077,29.077,0,0,0-6.47-4.53c.92-.77,1.78-1.71,2.39-2.22q3.03-2.475,6.06-4.97A8.763,8.763,0,0,0,259.076,175.386Zm26.46-45.32c-1.37,4.56-5.25,7.37-9.63,8.5q1.245-7.08,2.38-14.21a4.317,4.317,0,0,1,5.2-.86C285.706,124.786,286.216,127.786,285.536,130.066Zm-73.65-15.82c-.68-2.23-1.03-5.57-2.79-7.24-2.09-1.98-4.45-3.66-4.55-6.88a5.687,5.687,0,0,1,6.09-5.69,1.033,1.033,0,0,0,.72-1.75c-2.42-2.64-4.14-5.38-2.17-8.87,1.56-2.78,5.25-5.8,8.59-5.19a.913.913,0,0,0,.7-1.66c-3.58-2.41-.98-6.94,1.82-8.58,3.08-1.8,6.92-2.16,10.42-2.27a58.637,58.637,0,0,1,10.68.4,25.467,25.467,0,0,1,9.74,4,.523.523,0,0,0,.72-.27c6.51-4.08,15.53-4.08,22.87-3.08,4.09.55,8.2,1.85,11.25,4.76,2.66,2.53,5.37,7.7,2.22,10.89a1.123,1.123,0,0,0,0,1.56c2.57,2.24,5.23,4.68,6.35,8.01,1.15,3.37.22,7.56-3.52,8.71a1.089,1.089,0,0,0-.48,1.79c2.66,3.27.75,7.51-1.21,10.57-1.71,2.67-3.64,5.14-4.63,8.17a6.225,6.225,0,0,0-1.8-.72,5.772,5.772,0,0,0-4.19.68q1.11-7.185,2.11-14.38c.44-.05.87-.1,1.31-.17,1.43-.24.82-2.4-.6-2.17a19.269,19.269,0,0,1-10.73-1.41c-3.01-1.32-7.28-3.99-7.88-7.5-.2-1.18-2.21-.92-2.1.28.33,3.37,1.97,8.29-3.46,7.33-3.04-.53-5.93-2.11-7.21-5.02-.46-1.06-2.33-.29-1.89.79.96,2.36.95,6.17-2.8,5.49a11.877,11.877,0,0,1-4.37-2.17,19.9,19.9,0,0,1-6.21-7.21,1.043,1.043,0,0,0-1.77,0,38.453,38.453,0,0,1-8.19,7.92,16.5,16.5,0,0,1-10.45,3.08.448.448,0,0,0-.22.83,8.717,8.717,0,0,0,4.28.87c0,5.01.31,10.05.75,15.09a6.119,6.119,0,0,0-4.9-.72C213.546,119.756,212.716,117.006,211.886,114.246Zm.1,14.85a4.521,4.521,0,0,1,5.9-4.28c.23.07.96.56,1.62.81.45,4.64.98,9.26,1.47,13.85C215.986,138.556,211.606,134.566,211.986,129.1Zm8.68-21.28c5.13-1.31,10.03-6.19,13.18-10.03a20.393,20.393,0,0,0,9.99,8.74c3.84,1.41,6.46-.67,6.95-3.69a12.475,12.475,0,0,0,8.11,3.03,4.307,4.307,0,0,0,4.24-2.6,5.7,5.7,0,0,0,.43-2,21.458,21.458,0,0,0,5.94,4.06,20.928,20.928,0,0,0,9.09,2q-1.05,7.02-2.12,14.02a15.108,15.108,0,0,0-3.11.69c-.62.19-1.3.38-1.98.6a10.306,10.306,0,0,0-4.85-4.84,11.9,11.9,0,0,0-10.74.84,10.354,10.354,0,0,0-4.24,5.87c-.58-.06-1.18-.06-1.63-.08a18.476,18.476,0,0,0-3.4.09,10.441,10.441,0,0,0-5.55-6.72,11.439,11.439,0,0,0-7.7-.39,10.6,10.6,0,0,0-7.02,6.34c-1.08-.07-2.16-.09-3.24-.13-.31-.01-.62-.04-.92-.05C221.706,118.306,221.3,113.046,220.666,107.816Zm7.04,45.12c-3.31-3.33-3.72-7.68-4.18-12.1a.988.988,0,0,0-.04-.38c-.01-.1-.02-.21-.03-.31-.5-4.77-.85-9.56-1.2-14.36.26.02.51.03.76.06.87.07,1.74.14,2.61.18a9.363,9.363,0,0,0,1,5.91,11.567,11.567,0,0,0,10.42,5.63,10.7,10.7,0,0,0,9.66-8.24,10.407,10.407,0,0,0,.17-2.72,29.217,29.217,0,0,1,3.37-.25c.28.01.6.05.94.08a9.483,9.483,0,0,0,1,5.5,11.567,11.567,0,0,0,10.42,5.63,10.262,10.262,0,0,0,9.52-12.91c.2-.05.41-.1.59-.14,1.09-.23,2.24-.38,3.36-.58q-.81,5.25-1.66,10.5c-.74,4.52-1.27,9.12-2.22,13.6-1.07,5.04-4.59,7.45-8.78,9.96a41.237,41.237,0,0,1-12,5.28c-4.7,1.03-9.04-.83-13.13-3A44.019,44.019,0,0,1,227.706,152.936Zm10.77,10.77c0-.23,0-.47.01-.7a24.756,24.756,0,0,0,8.36,2.74,18.64,18.64,0,0,0,8.82-1.51c-.01,1.37-.02,2.74,0,4.11.01.66.03,1.32.06,1.97a5.9,5.9,0,0,0,.32,1.65l-4.46,3.68c-1.28,1.05-4.13,4.42-5.9,3.85-.83-.26-1.93-1.63-2.6-2.2-.87-.73-1.74-1.45-2.62-2.18-.9-.74-1.79-1.59-2.78-2.25a5.572,5.572,0,0,0,.73-2.55c.03-.65.05-1.31.06-1.97C238.5,166.806,238.476,165.246,238.476,163.706Zm-1.9,10.54a49.911,49.911,0,0,0,4.79,4.18c1.07.92,2.13,1.86,3.23,2.76.04.04.08.07.12.11-.24.19-.47.39-.7.57a32.725,32.725,0,0,0-3.52,3.24,44.034,44.034,0,0,1-4.95-10.04A10.59,10.59,0,0,0,236.576,174.246Zm23.07,13.98c-3.57,2.49-8.5,3.59-12.81,3.63a18.977,18.977,0,0,1-11.45-3.89c-3.33-2.49-5.26-5.81-7.44-9.17,1.42-.58,2.82-1.18,4.2-1.86.48-.24.95-.48,1.42-.72a40.921,40.921,0,0,0,5.84,11.24,1.135,1.135,0,0,0,1.76.22,62.6,62.6,0,0,1,5.1-4.94,6.924,6.924,0,0,0,.61-.59c2.38,2.15,5.37,3.83,7.78,5.88a1.133,1.133,0,0,0,1.76-.22,50.913,50.913,0,0,0,4.54-11.39c.34.17.69.34,1.04.52,1.56.77,3.16,1.44,4.77,2.09A21.809,21.809,0,0,1,259.646,188.226Z" fill="#333"/>
        <path id="Path_14" data-name="Path 14" d="M290.546,102.886c2.66,3.27.75,7.51-1.21,10.57-1.71,2.67-3.64,5.14-4.63,8.17a6.225,6.225,0,0,0-1.8-.72,5.772,5.772,0,0,0-4.19.68q1.11-7.185,2.11-14.38c.44-.05.87-.1,1.31-.17,1.43-.24.82-2.4-.6-2.17a19.269,19.269,0,0,1-10.73-1.41c-3.01-1.32-7.28-3.99-7.88-7.5-.2-1.18-2.21-.92-2.1.28.33,3.37,1.97,8.29-3.46,7.33-3.04-.53-5.93-2.11-7.21-5.02-.46-1.06-2.33-.29-1.89.79.96,2.36.95,6.17-2.8,5.49a11.877,11.877,0,0,1-4.37-2.17,19.9,19.9,0,0,1-6.21-7.21,1.043,1.043,0,0,0-1.77,0,38.453,38.453,0,0,1-8.19,7.92,16.5,16.5,0,0,1-10.45,3.08.448.448,0,0,0-.22.83,8.717,8.717,0,0,0,4.28.87c0,5.01.31,10.05.75,15.09a6.119,6.119,0,0,0-4.9-.72c-.84-2.76-1.67-5.51-2.5-8.27-.68-2.23-1.03-5.57-2.79-7.24-2.09-1.98-4.45-3.66-4.55-6.88a5.687,5.687,0,0,1,6.09-5.69,1.033,1.033,0,0,0,.72-1.75c-2.42-2.64-4.14-5.38-2.17-8.87,1.56-2.78,5.25-5.8,8.59-5.19a.913.913,0,0,0,.7-1.66c-3.58-2.41-.98-6.94,1.82-8.58,3.08-1.8,6.92-2.16,10.42-2.27a58.637,58.637,0,0,1,10.68.4,25.467,25.467,0,0,1,9.74,4,.523.523,0,0,0,.72-.27c6.51-4.08,15.53-4.08,22.87-3.08,4.09.55,8.2,1.85,11.25,4.76,2.66,2.53,5.37,7.7,2.22,10.89a1.123,1.123,0,0,0,0,1.56c2.57,2.24,5.23,4.68,6.35,8.01,1.15,3.37.22,7.56-3.52,8.71A1.089,1.089,0,0,0,290.546,102.886Z" fill="#333"/>
        <path id="Path_15" data-name="Path 15" d="M239.64,109.794c-1.79-1.149-4.23-1.307-6.319-1.328-2.01-.02-4.322.022-5.827,1.486a1.469,1.469,0,0,0,.295,2.289c1.752.855,3.633.451,5.532.393,1.982-.061,4.038.247,5.976-.219A1.451,1.451,0,0,0,239.64,109.794Z" fill="#333"/>
        <path id="Path_16" data-name="Path 16" d="M270.409,109.794c-1.79-1.149-4.23-1.307-6.319-1.328-2.01-.02-4.322.022-5.827,1.486a1.469,1.469,0,0,0,.3,2.289c1.752.855,3.633.451,5.532.393,1.982-.061,4.038.247,5.976-.219A1.451,1.451,0,0,0,270.409,109.794Z" fill="#333"/>
        <path id="Path_17" data-name="Path 17" d="M248.213,137.995a4.366,4.366,0,0,0,2.209-.57,1.093,1.093,0,0,0-.546-2.019,10.891,10.891,0,0,0-1.768.062,2.7,2.7,0,0,0-1.849.543.987.987,0,0,0-.153,1.19A2.329,2.329,0,0,0,248.213,137.995Z" fill="#333"/>
        <path id="Path_18" data-name="Path 18" d="M248.408,149.907c2.5.137,7.024-.982,7.662-3.814a.725.725,0,0,0-.883-.883,10,10,0,0,0-2.347,1.417,7.578,7.578,0,0,1-4.106,1.073c-2.913-.1-4.238-1.935-6.523-3.256a.658.658,0,0,0-.955.734C241.851,148.063,245.744,149.76,248.408,149.907Z" fill="#333"/>
      </g>
      <path id="Path_19" data-name="Path 19" d="M217.587,199.724c-.351,13.083-.99,26.227.57,39.222a18.961,18.961,0,0,0,6.527.213q-.779-29.79-1.558-59.578c0,.111-5.19,1.011-5.635,1.53-.854,1,0,4.148.069,5.538C217.791,191,217.7,195.367,217.587,199.724Z" fill="#333"/>
      <path id="Path_20" data-name="Path 20" d="M271.505,198.534c-.1,2.407-.327,4.809-.337,7.217-.011,2.49.215,4.973.411,7.455q1.036,13.122.995,26.3l5.633-.028c1.885-18.941-2.09-38-1.584-57.023a1.772,1.772,0,0,0-.339-1.352,1.742,1.742,0,0,0-.8-.363c-1.55-.4-3.463-1.211-5.033-1.152-.15,3.1.634,6.442.855,9.559C271.524,192.284,271.505,195.393,271.505,198.534Z" fill="#333"/>
    </g>
    <path id="Path_21" data-name="Path 21" d="M233.683,140a5.631,5.631,0,0,0-1.664-1.683,4.749,4.749,0,0,0-2.453-.6,11.57,11.57,0,0,0-2.137.277l.008.028a3.994,3.994,0,0,0-1.044.409,4.337,4.337,0,0,0-1.556,5.934,4.313,4.313,0,0,0,2.592,1.993,13.144,13.144,0,0,0,2.137.277,4.317,4.317,0,0,0,2.453-.6,6.42,6.42,0,0,0,1.664-1.683A4.139,4.139,0,0,0,233.683,140Z" fill="#e5b5b5"/>
    <path id="Path_22" data-name="Path 22" d="M271.105,141.678a3.578,3.578,0,0,0-2.574-2.987,13.882,13.882,0,0,0-1.862-.309,5.942,5.942,0,0,0-1.975.106c-2.576.519-3.642,3.786-2.4,5.9a4.231,4.231,0,0,0,3.472,1.987l0,0c.011,0,.021,0,.032,0a3.769,3.769,0,0,0,1.541-.274,12.054,12.054,0,0,0,2.055-.848A3.576,3.576,0,0,0,271.105,141.678Z" fill="#e5b5b5"/>
  </g>
</svg>
