<svg xmlns="http://www.w3.org/2000/svg" width="102.339" height="180.107" viewBox="0 0 102.339 180.107">
  <g id="Group_8" data-name="Group 8" transform="translate(-343.829 -59.622)">
    <g id="Group_7" data-name="Group 7">
      <path id="Path_23" data-name="Path 23" d="M393.681,131.272a2.806,2.806,0,0,0,2.893.033,1.226,1.226,0,0,0,.552-1.357,1.261,1.261,0,0,0-1.158-.882,5.928,5.928,0,0,0-1.462.012,3.445,3.445,0,0,0-.55.091A1.164,1.164,0,0,0,393.681,131.272Z" fill="#333"/>
      <path id="Path_24" data-name="Path 24" d="M384.583,120.27c-2.7-1.006-8.121-1.469-9.916,1.394a.547.547,0,0,0,.467.815,6.835,6.835,0,0,0,2.27-.314,9.067,9.067,0,0,0-.789,2.934c-.2,2.329-.217,5.909,2.366,6.982,2.424,1.006,3.811-1.422,4.176-3.455.312-1.734.449-4.716-.467-6.639.441.1.881.212,1.324.346C385.352,122.739,385.853,120.742,384.583,120.27Z" fill="#333"/>
      <path id="Path_25" data-name="Path 25" d="M417.952,120.27c-2.7-1.006-8.121-1.469-9.916,1.394a.548.548,0,0,0,.467.815,6.844,6.844,0,0,0,2.271-.314,9.1,9.1,0,0,0-.79,2.934c-.2,2.329-.217,5.909,2.366,6.982,2.424,1.006,3.811-1.422,4.177-3.455.311-1.734.448-4.716-.468-6.639.441.1.881.212,1.325.346C418.721,122.739,419.223,120.742,417.952,120.27Z" fill="#333"/>
      <path id="Path_26" data-name="Path 26" d="M385.407,113.806a16.905,16.905,0,0,0-10.858.058,1.23,1.23,0,0,0,.653,2.37,22.583,22.583,0,0,1,5.491-.587,27.425,27.425,0,0,0,4.714.111C386.514,115.6,386.208,114.12,385.407,113.806Z" fill="#333"/>
      <path id="Path_27" data-name="Path 27" d="M419.075,113.864a16.905,16.905,0,0,0-10.858-.058c-.8.314-1.107,1.8,0,1.952a27.424,27.424,0,0,0,4.714-.111,22.583,22.583,0,0,1,5.491.587A1.23,1.23,0,0,0,419.075,113.864Z" fill="#333"/>
      <path id="Path_28" data-name="Path 28" d="M401.316,137.293c-2.232-.038-4.467.008-6.7,0a27.566,27.566,0,0,0-5.059.141l-.433.02a.87.87,0,0,0-.646.308.288.288,0,0,0-.031.04,1.09,1.09,0,0,0-.2.531c-.509,4.3,2.2,8.789,6.845,8.906,5.041.128,7.036-4.71,7.116-9.053A.9.9,0,0,0,401.316,137.293Zm-6.225,8.217c-3.43-.12-5.167-3.261-5.136-6.334,3.492-.127,6.964.006,10.457.026C400.228,142.321,398.713,145.638,395.091,145.51Z" fill="#333"/>
      <path id="Path_29" data-name="Path 29" d="M444.576,101.626c2.12-2.4,1.65-7.04,1.24-9.92-1.03-7.29-5.14-14.99-9.85-20.58-9.17-10.88-24.86-13.96-38.05-9.59a43.35,43.35,0,0,0-19.19,13c-8.52-4.87-19.88-.85-26.47,5.55-4.08,3.96-13.22,16.51-5.19,19.54a6.516,6.516,0,0,0,4.84,10.88c-.3,5.14,4.22,8.56,7.12,12.49a7.448,7.448,0,0,0-2.78,6.59,12.544,12.544,0,0,0,11.7,11.66c.38,3.84.84,7.79,3.2,10.96,2.53,3.39,6.44,5.88,10.03,8.01.58.34,1.16.68,1.76,1.02-.01.65-.01,1.3-.03,1.92-.08,1.73-.11,3.46-.18,5.19-.01.47-.03.95-.06,1.42-.18,3.45-7.47,5.63-10.2,6.71-3.44,1.37-7.14,2.54-10.3,4.51a13.636,13.636,0,0,0-5.51,7.19,227.987,227.987,0,0,0-12.81,48.95c-.24,1.56,2.16,2.24,2.4.66a240.971,240.971,0,0,1,5.31-25.67c2.17-8.14,4.49-16.56,7.9-24.29a10.29,10.29,0,0,1,2.21-3.21,26.207,26.207,0,0,1,1.78,2.19c.95,1.43,1.62,2.99,2.44,4.49.65,1.19,2.68.38,2.23-.94a17.411,17.411,0,0,0-3.22-5.31,13.206,13.206,0,0,0-1.61-1.74,29.153,29.153,0,0,1,5.68-2.8c3.25-1.32,6.56-2.49,9.71-4.03-.52,8.1-.51,16.18-.81,24.28-.04,1.12,1.39,1.3,1.95.53A10.865,10.865,0,0,1,388.6,197q1.8,5.79,3.76,11.54a18.662,18.662,0,0,0-.02,3.58l-.09,8.43q-.075,8.43-.35,16.85c-.05,1.45,2.2,1.45,2.25,0q.255-8.43.33-16.85.03-4-.02-8.01a30.847,30.847,0,0,0,.02-3.49q2.07-5.19,3.98-10.44a11.425,11.425,0,0,1,4.1,1.31,22.084,22.084,0,0,1,4.42,4,1.1,1.1,0,0,0,1.85-.77q1.2-12.81,2.38-25.61c2.45,1.05,4.95,1.97,7.42,2.97a32.447,32.447,0,0,1,5.3,2.54,15.8,15.8,0,0,0-2.2,3.8c-.85,1.85-2.44,4.71-1.66,6.72a.909.909,0,0,0,1.5.39c1.42-1.34,1.58-4.02,2.28-5.83.46-1.19,1.25-2.48,1.76-3.8a10.238,10.238,0,0,1,2.54,3.5c3.4,7.73,5.73,16.15,7.89,24.29a240.971,240.971,0,0,1,5.31,25.67c.24,1.58,2.64.9,2.4-.66a227.987,227.987,0,0,0-12.81-48.95,13.636,13.636,0,0,0-5.51-7.19c-3.16-1.97-6.86-3.14-10.3-4.51-2.73-1.08-10.02-3.26-10.2-6.71-.03-.47-.05-.95-.06-1.42-.07-1.73-.1-3.46-.18-5.19,0-.14,0-.29-.01-.44.61-.28,1.21-.57,1.8-.85,3.96-1.93,8.47-4.29,11.42-7.64,2.91-3.29,3.26-8.01,4.01-12.14.11-.6.22-1.2.32-1.8,6.39-.44,13.48-6.95,12.6-13.69a7.924,7.924,0,0,0-2.37-4.74,30.936,30.936,0,0,0,3.67-10.43,4.7,4.7,0,0,0,3.51-3.11,7.4,7.4,0,0,0-.41-5.27C441.166,103.336,443.2,103.186,444.576,101.626Zm-85.87,26.93a4.525,4.525,0,0,1,5.91-4.28c.23.07.95.55,1.62.8.45,4.64.98,9.27,1.47,13.85C362.716,138.016,358.336,134.026,358.706,128.556Zm21.2,69.52c-.07-7.49.48-15.05,1-22.51a1.475,1.475,0,0,0-.01-.21,15.359,15.359,0,0,0,1.42-.87,168.078,168.078,0,0,0,4.59,16.94c.41,1.37.83,2.75,1.25,4.12A9.954,9.954,0,0,0,379.906,198.076Zm26.35-22.97c.78.45,1.62.86,2.47,1.28.15.07.3.14.45.22q-1.155,12.075-2.29,24.17c-2.12-1.98-5.1-4.27-7.74-4.05Q403.016,186.031,406.256,175.106Zm-3.8-5.34a5.56,5.56,0,0,0,2.02,4.11c-.01.04-.04.08-.05.13q-4.71,16.155-10.84,31.85-2.49-7.44-4.68-14.98c-1.7-5.82-3.05-11.88-5.26-17.53a5.43,5.43,0,0,0,1.5-3.58c.02-.47.04-.94.05-1.42.04-1.72.01-3.46.01-5.19,0-.23,0-.46.01-.7a24.946,24.946,0,0,0,8.35,2.75,18.721,18.721,0,0,0,8.82-1.51c0,1.55-.02,3.1.02,4.65C402.416,168.826,402.436,169.3,402.456,169.766Zm18.69-35.88c-.75,4.53-1.27,9.12-2.22,13.61-1.07,5.04-4.6,7.44-8.79,9.95a41.206,41.206,0,0,1-11.99,5.29c-4.71,1.02-9.04-.83-13.13-3a43.582,43.582,0,0,1-10.58-7.35c-3.31-3.33-3.73-7.67-4.18-12.09a1.2,1.2,0,0,0-.04-.38c-.01-.11-.02-.21-.03-.32-1.14-10.79-1.5-21.7-2.81-32.46.11-.12.22-.24.34-.36a27.032,27.032,0,0,1,5.37-4.03,30.772,30.772,0,0,1,12.47-3.66.659.659,0,0,0,1.04.34c3.52-2.44,6.73-4.71,10.93-5.91a27.7,27.7,0,0,1,12.8-.58,18.51,18.51,0,0,1,11.17,6.08,23.269,23.269,0,0,1,3.41,5.84c.19.44.35.88.5,1.34C424.026,115.436,422.656,124.676,421.146,133.886Zm11.11-4.37c-1.36,4.56-5.24,7.37-9.62,8.51q1.245-7.095,2.37-14.21a4.3,4.3,0,0,1,5.21-.86C432.426,124.246,432.936,127.246,432.256,129.516Zm5.39-29.04a1.114,1.114,0,0,0-1.25,1.61c.92,1.92,2.84,7.37-1.23,7.18a1.1,1.1,0,0,0-1.07.81,28.129,28.129,0,0,1-3.62,10.54,5.828,5.828,0,0,0-5.03.42q.795-5.19,1.55-10.39a1.134,1.134,0,0,0,2.1-.57c-.2-4.24-2.76-9.12-5.36-12.38a19.88,19.88,0,0,0-12.45-7c-8.39-1.52-19.77.42-25.5,7.37a22.731,22.731,0,0,0-13.59,2.53,25.534,25.534,0,0,0-5.99,4.22c-1.62,1.53-3.73,3.59-4.31,5.81a1.033,1.033,0,0,0,1.71,1,12.965,12.965,0,0,0,1.67-1.87c.08,4.3.36,8.62.74,12.93a6.194,6.194,0,0,0-4.56-.8c-2.59-3.67-8.19-7.33-6.98-12.34a1.229,1.229,0,0,0-1.49-1.49,4.327,4.327,0,0,1-2.92-8.03,1.149,1.149,0,0,0-.58-2.12c-1.27-.16-2.95-.34-3.46-1.8a5.032,5.032,0,0,1,.4-3.21,27.57,27.57,0,0,1,2.36-4.78,28.01,28.01,0,0,1,7.67-8.37,25.433,25.433,0,0,1,10-4.35c4-.75,8.01-.09,11.96.61a.718.718,0,0,0,1.08.01c8.45-8.45,19.94-14.56,32.13-13.91a33.131,33.131,0,0,1,16.72,5.48c5.44,3.66,9.07,9.13,11.84,14.97a30.628,30.628,0,0,1,3.38,11.54c.08,1.71.36,4.66-.87,6.02S439.2,100.886,437.646,100.476Z" fill="#333"/>
      <path id="Path_30" data-name="Path 30" d="M442.7,100.116c-1.23,1.37-3.5.77-5.05.36a1.114,1.114,0,0,0-1.25,1.61c.92,1.92,2.84,7.37-1.23,7.18a1.1,1.1,0,0,0-1.07.81,28.129,28.129,0,0,1-3.62,10.54,5.828,5.828,0,0,0-5.03.42q.795-5.19,1.55-10.39a1.134,1.134,0,0,0,2.1-.57c-.2-4.24-2.76-9.12-5.36-12.38a19.88,19.88,0,0,0-12.45-7c-8.39-1.52-19.77.42-25.5,7.37a22.731,22.731,0,0,0-13.59,2.53,25.534,25.534,0,0,0-5.99,4.22c-1.62,1.53-3.73,3.59-4.31,5.81a1.033,1.033,0,0,0,1.71,1,12.965,12.965,0,0,0,1.67-1.87c.08,4.3.36,8.62.74,12.93a6.194,6.194,0,0,0-4.56-.8c-2.59-3.67-8.19-7.33-6.98-12.34a1.229,1.229,0,0,0-1.49-1.49,4.327,4.327,0,0,1-2.92-8.03,1.149,1.149,0,0,0-.58-2.12c-1.27-.16-2.95-.34-3.46-1.8a5.032,5.032,0,0,1,.4-3.21,27.57,27.57,0,0,1,2.36-4.78,28.01,28.01,0,0,1,7.67-8.37,25.433,25.433,0,0,1,10-4.35c4-.75,8.01-.09,11.96.61a.718.718,0,0,0,1.08.01c8.45-8.45,19.94-14.56,32.13-13.91a33.131,33.131,0,0,1,16.72,5.48c5.44,3.66,9.07,9.13,11.84,14.97a30.628,30.628,0,0,1,3.38,11.54C443.646,95.806,443.926,98.756,442.7,100.116Z" fill="#333"/>
      <path id="Path_31" data-name="Path 31" d="M397.3,214.062a2.356,2.356,0,0,0-.928,2.657,2.1,2.1,0,0,0,1,1.215,1.961,1.961,0,0,0,.65.332,2.26,2.26,0,0,0,2.571-1.089,2.335,2.335,0,0,0-3.295-3.115Z" fill="#333"/>
      <path id="Path_32" data-name="Path 32" d="M397.907,226.5a2.283,2.283,0,0,0-1.7,1.544,2.171,2.171,0,0,0,.838,2.435,2.6,2.6,0,0,0,3.232-.708,2.233,2.233,0,0,0-.036-2.3A2.206,2.206,0,0,0,397.907,226.5Z" fill="#333"/>
      <path id="Path_33" data-name="Path 33" d="M366.609,193.757c-.26,14.921-3.05,29.7-3.308,44.645a1.16,1.16,0,0,0,2.319,0c.119-7.591.767-15.144,1.449-22.7.328-3.638.67-7.275.981-10.914.317-3.713.888-7.558.288-11.264C368.175,192.519,366.625,192.8,366.609,193.757Z" fill="#333"/>
      <path id="Path_34" data-name="Path 34" d="M422.137,206.683c-.075-1.722-.165-3.444-.257-5.165a17.1,17.1,0,0,0-.63-5.2c-.043-.513-.964-.855-1.2-.122-.963,3-.236,6.929-.19,10.06.052,3.588.164,7.176.224,10.764q.181,10.767.123,21.535a1.22,1.22,0,0,0,2.438,0q.024-10.769-.211-21.535C422.358,213.573,422.288,210.126,422.137,206.683Z" fill="#333"/>
    </g>
    <path id="Path_35" data-name="Path 35" d="M381.483,137.638c-.006-.113,0-.224-.014-.336a4.2,4.2,0,0,0-1.214-2.536l-.894-.69a4.387,4.387,0,0,0-2.229-.6,5.95,5.95,0,0,0-3.482,1,4.256,4.256,0,0,0-1.772,5.409,4.294,4.294,0,0,0,5.11,2.508c.14-.034.282-.057.424-.086a5.535,5.535,0,0,0,.894-.155,4.322,4.322,0,0,0,2.6-2.058A3.648,3.648,0,0,0,381.483,137.638Z" fill="#e5b5b5"/>
    <path id="Path_36" data-name="Path 36" d="M417.79,136.013a4.379,4.379,0,0,0-2.9-2.02,4.469,4.469,0,0,0-1.836-.362,5.713,5.713,0,0,0-3.9,1.553,4.5,4.5,0,0,0-1.318,3.182,4.646,4.646,0,0,0,.966,2.727,4.29,4.29,0,0,0,2.337,1.612,5,5,0,0,0,1.2.114v.047a6.8,6.8,0,0,0,3.086-.786,4.237,4.237,0,0,0,.551-.364c.1-.05.2-.1.3-.154A4.118,4.118,0,0,0,417.79,136.013Z" fill="#e5b5b5"/>
  </g>
</svg>
