<svg xmlns="http://www.w3.org/2000/svg" width="108.925" height="179.425" viewBox="0 0 108.925 179.425">
  <g id="Group_14" data-name="Group 14" transform="translate(-192.691 -260.953)">
    <g id="Group_13" data-name="Group 13">
      <g id="Group_12" data-name="Group 12">
        <path id="Path_47" data-name="Path 47" d="M254.181,344.005a7.293,7.293,0,0,1-5.919,2.344,7.691,7.691,0,0,1-2.964-.952,8.247,8.247,0,0,0-2.347-1.313.685.685,0,0,0-.855.651c0,2.618,3.765,4.292,5.967,4.582A8.984,8.984,0,0,0,256.175,346C257.281,344.615,255.5,342.689,254.181,344.005Z" fill="#333"/>
        <path id="Path_48" data-name="Path 48" d="M280.488,419q-.051-2.783-.086-5.565-.02-1.833-.018-3.658c-.008-2.647.005-5.291,0-7.934v-.178c.005-3.671.273-7.528-.368-11.155-.108-.624-1.071-.572-1.214,0-.888,3.571-.814,7.493-.914,11.159-9.811.009-19.627.156-29.434.147-5.872,0-11.788-.264-17.642.174-2.952.217-5.881.576-8.819.88-.022,0-.039,0-.061,0v-.039c.03-1.985.074-3.97.087-5.954.008-1.665.164-3.4-.52-4.936a.508.508,0,0,0-.876,0,10.981,10.981,0,0,0-.789,4.506c-.134,1.985-.19,3.975-.286,5.959-.008.217-.021.434-.03.65-.117,2.384-.234,4.767-.334,7.155-.069,1.508-.13,3.021-.182,4.529q-.1,2.853-.195,5.7-.123,3.523-.238,7.051-.2,5.746-.394,11.493c-.061,1.842,2.812,1.846,2.864,0q.162-5.662.317-11.32c2.738.13,5.46.044,8.194-.026,6.163-.156,12.308-.1,18.47-.043,10,.091,20.035-.052,30.041-.407q.17,4.926.429,9.846c.087,1.664,2.687,1.677,2.6,0q-.248-4.967-.4-9.942Q280.562,423.053,280.488,419Zm-32.034.151c-5.872,0-11.788-.264-17.642.174-2.952.216-5.881.576-8.819.879-.143.013-.286.031-.429.039q.077-2.75.155-5.5c.044-1.461.074-2.925.1-4.386,2.583.1,5.149.018,7.731-.047,6.163-.157,12.308-.1,18.47-.044q14.868.131,29.76-.394,0,1.78,0,3.562.006,2.783.061,5.569C268.046,419.016,258.248,419.164,248.454,419.155Z" fill="#333"/>
        <path id="Path_49" data-name="Path 49" d="M301.2,313.176a16.135,16.135,0,0,0-8.48-9.58c2.47-2.2,3.01-6.17,1.6-9.28-1.52-3.39-5.91-8.05-10.16-8.54,1.78-4.62-1.06-9.79-5.53-12.16-5.29-2.8-12.93-3.4-18.61-.92-3.04-5.58-8.79-10.43-15.12-11.57-2.57-.47-5.56-.07-7.11,2.29a7.077,7.077,0,0,0-.52,6.01c-4.92-1.76-10.97-2.95-15.61-.61a8.979,8.979,0,0,0-4.74,9.18c-5.1-1.77-10.48,1.92-13.66,6.03-2.01,2.6-4.25,6.09-3.8,9.55a4.877,4.877,0,0,0,2.65,3.73,20.517,20.517,0,0,0-6.87,11.14c-.49,2.21-1,5.03.78,6.79a4.731,4.731,0,0,0,3.33,1.35,22.139,22.139,0,0,0-6.11,9.72c-.53,1.92-1.03,4.46.33,6.14a5.077,5.077,0,0,0,3.35,1.72c-2.55,3.11-3.38,8.08-2.97,11.72.25,2.2.99,4.7,2.89,6.04a5.279,5.279,0,0,0,5.11.4,10.78,10.78,0,0,0,2.47,7.7,15.766,15.766,0,0,0,26.28-2.59,55.765,55.765,0,0,0,5.85,3.87c.58.34,1.17.68,1.76,1.02-.01.65,0,1.3-.03,1.93-.1,2.2-.12,4.41-.23,6.61-.18,3.44-7.47,5.63-10.2,6.71-3.31,1.31-6.85,2.45-9.93,4.28-.13.07-.26.14-.38.22a13.686,13.686,0,0,0-5.51,7.19,227.987,227.987,0,0,0-12.81,48.95c-.24,1.57,2.16,2.24,2.4.66a239.563,239.563,0,0,1,5.32-25.67c2.16-8.14,4.49-16.56,7.89-24.28,1.71-3.9,5.12-5.53,8.82-7.05,2.28,3.21,6.06,5.39,9.6,6.84a36.27,36.27,0,0,0,15.16,2.29c8.93-.4,19.76-2.32,26.13-9.15l.03-.03c.02.01.05.02.07.03,3.72,1.53,7.15,3.15,8.88,7.07,3.4,7.72,5.73,16.14,7.89,24.28a242,242,0,0,1,5.31,25.67c.24,1.58,2.64.91,2.4-.66a227.965,227.965,0,0,0-12.8-48.95c-1.19-3.01-2.72-5.46-5.51-7.19-.12-.08-.25-.15-.38-.22-3.08-1.83-6.62-2.97-9.93-4.28-2.73-1.08-10.02-3.27-10.2-6.71-.11-2.2-.14-4.41-.23-6.61-.01-.15-.01-.3-.01-.45.6-.28,1.2-.56,1.79-.85a49.621,49.621,0,0,0,8.7-5.11c.05.04.09.08.14.12,5,3.84,10.92,5.04,16.14.89,3.67-2.91,6.61-8.06,5.7-12.82a3.9,3.9,0,0,0,3.49-.23c2.48-1.41,3.73-4.79,4.34-7.41a19.713,19.713,0,0,0-2.94-15.6C301.086,321.786,302.366,316.906,301.2,313.176Zm-37.1,64.3c2.46,1.22,5.02,2.2,7.57,3.2a18.5,18.5,0,0,1-1.47,1.18c-5.95,4.34-14.32,5.73-21.38,6.1a35.715,35.715,0,0,1-13.47-1.67,28.826,28.826,0,0,1-7.98-4.43l-1.26-.96c2.74-1.07,5.5-2.11,8.14-3.42,3.05-1.51,6.08-2.9,6.27-6.61.11-2.2.06-4.42.06-6.61,0-.24,0-.47.01-.71a24.557,24.557,0,0,0,8.36,2.75,18.764,18.764,0,0,0,8.82-1.51c-.01,2.02-.04,4.06.06,6.08C258.016,374.576,261.046,375.966,264.1,377.476Zm1.42-18.93a41.236,41.236,0,0,1-12,5.28c-4.7,1.03-9.04-.83-13.13-3a44.018,44.018,0,0,1-10.58-7.34c-3.31-3.33-3.72-7.68-4.18-12.1a.968.968,0,0,0-.04-.38c-.01-.11-.02-.21-.03-.32-.49-4.62-.84-9.28-1.18-13.93a11.174,11.174,0,0,0,2.54-.27c-.62,4.81-.42,9.9,3.48,13.33,3.65,3.21,11.07,3.24,14.56-.29a13.338,13.338,0,0,0,3.17-6.85c.15-.74.27-1.56.36-2.43.73-.01,1.48-.11,2.19-.1,1.19,0,2.41.32,3.6.3.18,3.79,1.24,7.42,4.48,9.87,3.89,2.93,11.29,2.41,14.5-1.37a13.389,13.389,0,0,0,2.66-7.08,22.269,22.269,0,0,0-.11-6.29c.53.03,1.07.05,1.59.05.21.01.41.01.61.01-.49,3.12-.98,6.23-1.49,9.35-.75,4.52-1.27,9.11-2.22,13.6C273.226,353.626,269.706,356.026,265.516,358.546Zm12.96-35.97c-.43.01-.87.07-1.3.11a20.827,20.827,0,0,0-2.21.27c-.09-.17-.18-.34-.28-.51-1.4-2.24-5.49-1.02-7.62-.88-3.61.23-7.19.52-10.77,1.02-.15.01-.3.02-.46.02a1.3,1.3,0,0,0-1.25,1.25c-.13,1.23-.25,2.51-.31,3.8a12.8,12.8,0,0,0-3.6-.19,13.587,13.587,0,0,0-2.1.21,10.363,10.363,0,0,0-.97-4.49c-1.22-2.34-5.39-1.43-7.53-1.45-3.61-.04-7.21-.02-10.81.21-.15,0-.31,0-.46-.01a1.3,1.3,0,0,0-1.34,1.16c-.08.42-.16.85-.23,1.28-.78-.01-1.55-.02-2.33-.07-.24-.02-.47-.05-.71-.08-.22-2.98-.45-5.95-.72-8.91a10.037,10.037,0,0,0,3.59-4.56c2.02,1.28,5.08.94,7.22-.2a11.347,11.347,0,0,0,5.44-7.18,5.271,5.271,0,0,0,5.09.84c2.59-.93,4.52-3.4,5.75-6.11a8.406,8.406,0,0,0,4.59,4.37,7.683,7.683,0,0,0,7.76-1.84c.4,3.17,1.64,6.17,4.65,7.77a6.377,6.377,0,0,0,6.49-.27,7.843,7.843,0,0,0,3.52,5.08,7.167,7.167,0,0,0,2.19.85C279.336,316.9,278.916,319.736,278.476,322.576Zm1.89,2.34a4.323,4.323,0,0,1,5.22-.87c2.22,1.29,2.73,4.29,2.05,6.56-1.37,4.57-5.25,7.38-9.64,8.51Q279.241,332.036,280.366,324.916Zm-6.81,4.68a13.258,13.258,0,0,1-1.76,7.05c-2.36,3.59-9.17,3.96-12.18,1.08-3.38-3.26-3.12-8.3-2.66-12.67q7.875-.4,15.76-.8a5.111,5.111,0,0,1,.44,1.51A17.009,17.009,0,0,1,273.556,329.6Zm-27.6.63a13.32,13.32,0,0,1-2.28,6.9c-2.62,3.4-9.45,3.27-12.23.16-3.13-3.49-2.5-8.5-1.71-12.83l15.77.39a4.888,4.888,0,0,1,.33,1.53A17.1,17.1,0,0,1,245.956,330.226Zm52.54,3.5a17.107,17.107,0,0,1-.86,5.54,14.037,14.037,0,0,1-1.28,2.82c-.46.74-2.82,3.36-3.63,1.15a1.216,1.216,0,0,0-2.08-.33.988.988,0,0,0-.82,1.17c1.07,5.11-.32,9.56-4.48,12.86-4.18,3.31-8.94,2.35-12.89-.75.28-.28.56-.57.82-.87,2.9-3.29,3.25-8,4.01-12.14.1-.6.2-1.2.31-1.8,6.39-.43,13.49-6.94,12.6-13.69-.38-2.85-2.25-5.6-5.19-6.23a5.8,5.8,0,0,0-4.2.68c.42-2.66.82-5.33,1.21-7.99a7,7,0,0,0,3.93-1.84c1.25-1.18-.65-3.09-1.9-1.9a4.341,4.341,0,0,1-5.84.06,6.523,6.523,0,0,1-1.78-5.78c.18-1.48-2.11-1.67-2.51-.34-.97,3.17-4.85,2.64-6.65.63-2.18-2.43-2.12-5.88-1.89-8.94a1.278,1.278,0,0,0-2.5-.33c-.62,2.96-3.67,5.35-6.77,4.38-2.06-.64-5.22-4.41-3.66-6.73a.819.819,0,0,0-.6-1.22,1.028,1.028,0,0,0-1.87.32,20.486,20.486,0,0,1-3,7.09,6.672,6.672,0,0,1-2.91,2.51c-1.32.49-3.66.02-3.76-1.68.03-.28.05-.56.07-.84.07-1.24-2-1.55-2.21-.3l-.03.3h-.01a11.478,11.478,0,0,1-3.32,7.58c-1.46,1.34-6.23,3.6-7.18.5a1.248,1.248,0,0,0-2.44.33,6.517,6.517,0,0,1-2.65,5.22c-1.92,1.38-4.01,1.19-6.21.89a.825.825,0,0,0-.63,1.5,6.471,6.471,0,0,0,5.17.95q.2,3.63.53,7.28a6.114,6.114,0,0,0-6.24-.18,7.27,7.27,0,0,0-3.54,7.07,12.562,12.562,0,0,0,11.7,11.67c.39,3.84.84,7.78,3.21,10.95a18.158,18.158,0,0,0,2.11,2.37,13.333,13.333,0,0,1-13.5,7.38,13.6,13.6,0,0,1-7.58-3.61c-2.69-2.59-3.39-5.37-2.72-8.98a1.361,1.361,0,0,0-1.97-1.52c-2.05,1.12-4.33,1.85-5.56-.63a10.174,10.174,0,0,1-.75-5.23c.25-3.22,1.28-7.35,4.47-8.82,1.34-.62.48-2.36-.67-2.49-1.98-.21-4.88.31-4.87-2.45a12.129,12.129,0,0,1,1.62-5.36c1.67-3.17,4.15-5.56,6.53-8.16,1.29-.59.65-2.75-.8-2.29-2.53.81-5.59,1.47-5.61-2.22a14.641,14.641,0,0,1,1.42-5.53,18.331,18.331,0,0,1,7-8.11c.9-.57.65-2.37-.6-2.21-3.7.48-3.51-3.43-2.48-5.85a20.62,20.62,0,0,1,3.98-5.85c2.96-3.16,7.6-5.38,11.54-2.54,1.05.76,1.98-.65,1.58-1.57-1.91-4.3,1-8.69,5.4-9.51,4.57-.86,9.72.67,13.92,2.39.98.4,1.68-.88,1.28-1.66-1.17-2.23-2.21-5.89.68-7.31,2.27-1.12,5.2.01,7.33.98a30.508,30.508,0,0,1,10.81,8.62c-.31.16-.61.33-.91.5a.523.523,0,0,0,.4.95c5.56-.75,10.95-1.71,16.44.09,4.48,1.46,9.94,6.78,6.11,11.66-.66.85-.09,2.47,1.18,2.03,3.33-1.15,7.74,3.36,9.3,5.99,1.61,2.71,1.62,7.22-2.03,8.26a1.228,1.228,0,0,0,0,2.35,14.094,14.094,0,0,1,8.09,6.21,10.68,10.68,0,0,1,1.65,5.06c.03,2.19-1.39,4.79-3.94,4.31a1.209,1.209,0,0,0-1.17,2A17.114,17.114,0,0,1,298.5,333.726Zm-75.42,6.29c-4.99-.91-9.37-4.9-8.99-10.37a4.521,4.521,0,0,1,5.9-4.28c.2.06.78.43,1.36.7.09.05.18.1.27.14C222.066,330.836,222.6,335.446,223.076,340.016Z" fill="#333"/>
        <path id="Path_50" data-name="Path 50" d="M235.642,328.121a5.332,5.332,0,0,0-1.162,3.536,6.086,6.086,0,0,0,.65,3.162,3,3,0,0,0,3.965,1.2,3.062,3.062,0,0,0,1.585-2.185c.628-1.908.747-4.364-.809-5.795A3,3,0,0,0,235.642,328.121Z" fill="#333"/>
        <path id="Path_51" data-name="Path 51" d="M263.377,328.121a5.336,5.336,0,0,0-1.161,3.536,6.076,6.076,0,0,0,.65,3.162,3,3,0,0,0,3.965,1.2,3.06,3.06,0,0,0,1.584-2.185c.629-1.908.747-4.364-.808-5.795A3.005,3.005,0,0,0,263.377,328.121Z" fill="#333"/>
        <path id="Path_52" data-name="Path 52" d="M237.966,315.473c-1.806.048-3.89.107-5.455,1.075-1.089.673-1.032,2.654.382,2.924,1.672.32,3.379-.067,5.073-.112,1.649-.044,3.269.346,4.771-.453a1.526,1.526,0,0,0,.307-2.382C241.608,315.322,239.772,315.425,237.966,315.473Z" fill="#333"/>
        <path id="Path_53" data-name="Path 53" d="M259.436,318.6a10.7,10.7,0,0,0,3.758.2,29.509,29.509,0,0,1,4.062.243c2.225.286,2.309-3.383,0-3.554-2.56-.19-6.212-.483-8.312,1.251C258.242,317.319,258.727,318.342,259.436,318.6Z" fill="#333"/>
        <path id="Path_54" data-name="Path 54" d="M248.476,338.534a.7.7,0,0,0,.075.222l.006.013c.01.018.02.036.031.053a.989.989,0,0,0,.543.455.948.948,0,0,0,.133.045,14.706,14.706,0,0,0,1.488.265,3.773,3.773,0,0,0,1.826,0,1.308,1.308,0,0,0,.308-2.358,4.335,4.335,0,0,0-3.622-.087,1.253,1.253,0,0,0-.778,1.4Z" fill="#333"/>
      </g>
      <path id="Path_55" data-name="Path 55" d="M294.206,322.546a17.163,17.163,0,0,1,3.43,16.72,14.037,14.037,0,0,1-1.28,2.82c-.46.74-2.82,3.36-3.63,1.15a1.216,1.216,0,0,0-2.08-.33.988.988,0,0,0-.82,1.17c1.07,5.11-.32,9.56-4.48,12.86-4.18,3.31-8.94,2.35-12.89-.75.28-.28.56-.57.82-.87,2.9-3.29,3.25-8,4.01-12.14.1-.6.2-1.2.31-1.8,6.39-.43,13.49-6.94,12.6-13.69-.38-2.85-2.25-5.6-5.19-6.23a5.8,5.8,0,0,0-4.2.68c.42-2.66.82-5.33,1.21-7.99a7,7,0,0,0,3.93-1.84c1.25-1.18-.65-3.09-1.9-1.9a4.341,4.341,0,0,1-5.84.06,6.523,6.523,0,0,1-1.78-5.78c.18-1.48-2.11-1.67-2.51-.34-.97,3.17-4.85,2.64-6.65.63-2.18-2.43-2.12-5.88-1.89-8.94a1.278,1.278,0,0,0-2.5-.33c-.62,2.96-3.67,5.35-6.77,4.38-2.06-.64-5.22-4.41-3.66-6.73a.819.819,0,0,0-.6-1.22,1.028,1.028,0,0,0-1.87.32,20.486,20.486,0,0,1-3,7.09,6.672,6.672,0,0,1-2.91,2.51c-1.32.49-3.66.02-3.76-1.68.03-.28.05-.56.07-.84.07-1.24-2-1.55-2.21-.3l-.03.3h-.01a11.478,11.478,0,0,1-3.32,7.58c-1.46,1.34-6.23,3.6-7.18.5a1.248,1.248,0,0,0-2.44.33,6.517,6.517,0,0,1-2.65,5.22c-1.92,1.38-4.01,1.19-6.21.89a.825.825,0,0,0-.63,1.5,6.471,6.471,0,0,0,5.17.95q.2,3.63.53,7.28a6.114,6.114,0,0,0-6.24-.18,7.27,7.27,0,0,0-3.54,7.07,12.562,12.562,0,0,0,11.7,11.67c.39,3.84.84,7.78,3.21,10.95a18.158,18.158,0,0,0,2.11,2.37,13.333,13.333,0,0,1-13.5,7.38,13.6,13.6,0,0,1-7.58-3.61c-2.69-2.59-3.39-5.37-2.72-8.98a1.361,1.361,0,0,0-1.97-1.52c-2.05,1.12-4.33,1.85-5.56-.63a10.174,10.174,0,0,1-.75-5.23c.25-3.22,1.28-7.35,4.47-8.82,1.34-.62.48-2.36-.67-2.49-1.98-.21-4.88.31-4.87-2.45a12.129,12.129,0,0,1,1.62-5.36c1.67-3.17,4.15-5.56,6.53-8.16,1.29-.59.65-2.75-.8-2.29-2.53.81-5.59,1.47-5.61-2.22a14.641,14.641,0,0,1,1.42-5.53,18.331,18.331,0,0,1,7-8.11c.9-.57.65-2.37-.6-2.21-3.7.48-3.51-3.43-2.48-5.85a20.62,20.62,0,0,1,3.98-5.85c2.96-3.16,7.6-5.38,11.54-2.54,1.05.76,1.98-.65,1.58-1.57-1.91-4.3,1-8.69,5.4-9.51,4.57-.86,9.72.67,13.92,2.39.98.4,1.68-.88,1.28-1.66-1.17-2.23-2.21-5.89.68-7.31,2.27-1.12,5.2.01,7.33.98a30.508,30.508,0,0,1,10.81,8.62c-.31.16-.61.33-.91.5a.523.523,0,0,0,.4.95c5.56-.75,10.95-1.71,16.44.09,4.48,1.46,9.94,6.78,6.11,11.66-.66.85-.09,2.47,1.18,2.03,3.33-1.15,7.74,3.36,9.3,5.99,1.61,2.71,1.62,7.22-2.03,8.26a1.228,1.228,0,0,0,0,2.35,14.094,14.094,0,0,1,8.09,6.21,10.68,10.68,0,0,1,1.65,5.06c.03,2.19-1.39,4.79-3.94,4.31A1.209,1.209,0,0,0,294.206,322.546Z" fill="#333"/>
    </g>
    <path id="Path_56" data-name="Path 56" d="M239.189,346.584a4.253,4.253,0,0,0-1.231-2.57,5.034,5.034,0,0,0-3.165-1.312,6.652,6.652,0,0,0-3.814.736,4.561,4.561,0,0,0-2.079,2.7,4.687,4.687,0,0,0,.228,2.946,4.326,4.326,0,0,0,1.851,2.164,6.188,6.188,0,0,0,1.085.443l0,.013c.037.01.073.01.109.02a4.243,4.243,0,0,0,1.5.164,8.115,8.115,0,0,0,2.315-.4A4.5,4.5,0,0,0,239.189,346.584Z" fill="#e5b5b5"/>
    <path id="Path_57" data-name="Path 57" d="M271.727,347.141a4.208,4.208,0,0,0-1.912-2.485,4.036,4.036,0,0,0-3.205-.419,16.636,16.636,0,0,0-1.668.724,9.4,9.4,0,0,0-1.384,1.012l.019.026a3.382,3.382,0,0,0-1.139,2.678,3.929,3.929,0,0,0,3.824,3.824,9.046,9.046,0,0,0,2.56-.243A4.185,4.185,0,0,0,271.727,347.141Z" fill="#e5b5b5"/>
  </g>
</svg>
