<svg xmlns="http://www.w3.org/2000/svg" width="117.3" height="175.215" viewBox="0 0 117.3 175.215">
  <g id="Group_11" data-name="Group 11" transform="translate(-336.828 -265.162)">
    <g id="Group_10" data-name="Group 10">
      <g id="Group_9" data-name="Group 9">
        <path id="Path_37" data-name="Path 37" d="M392.378,334.059a4.155,4.155,0,0,0,2.208.431c.926-.022,1.9-.11,2.381-1.026a1.6,1.6,0,0,0-.243-1.883,1.838,1.838,0,0,0-1.3-.59c-.223.024-.444.056-.663.1s-.273.048-.17.023a7.267,7.267,0,0,0-1.856.248,1.506,1.506,0,0,0-1.057,1.227A1.486,1.486,0,0,0,392.378,334.059Z" fill="#333"/>
        <path id="Path_38" data-name="Path 38" d="M393.734,346.315c3.372.6,5.972-1.022,8.068-3.531a1.118,1.118,0,0,0-1.58-1.58c-1.88,1.781-3.752,3.386-6.555,2.641-2.076-.551-3.6-2-5.1-3.446-.442-.424-1.352-.006-1.1.642A8.285,8.285,0,0,0,393.734,346.315Z" fill="#333"/>
        <path id="Path_39" data-name="Path 39" d="M370.817,325.63c-.7.617.205,1.767.993,1.287a13.9,13.9,0,0,1,2.993-1.395,6.035,6.035,0,0,0-.579,2.173,8,8,0,0,0,.372,3.149,6.876,6.876,0,0,0,.4,1.214c.665,1.516,2.167,2.65,3.739,1.457,1.415-1.074,1.7-3.7,1.616-5.339a6.777,6.777,0,0,0-.781-3.158,19.314,19.314,0,0,1,2.344.343c.87.18,1.539-1.084.642-1.522A11.089,11.089,0,0,0,370.817,325.63Z" fill="#333"/>
        <path id="Path_40" data-name="Path 40" d="M406.3,325.361a19.343,19.343,0,0,1,2.344-.343,6.788,6.788,0,0,0-.781,3.158c-.083,1.64.2,4.265,1.616,5.339,1.572,1.193,3.074.059,3.74-1.457a6.872,6.872,0,0,0,.4-1.214,7.978,7.978,0,0,0,.372-3.149,6.035,6.035,0,0,0-.579-2.173,13.878,13.878,0,0,1,2.993,1.395c.788.48,1.7-.67.994-1.287a11.091,11.091,0,0,0-11.74-1.791C404.762,324.277,405.431,325.541,406.3,325.361Z" fill="#333"/>
        <path id="Path_41" data-name="Path 41" d="M370.618,321.459a16.882,16.882,0,0,1,4.864-2.265c2.168-.425,3.893.366,5.939.8.973.206,1.139-1.119.577-1.616-3.275-2.9-10.09-1.679-12.21,2.108C369.494,321.013,369.985,321.808,370.618,321.459Z" fill="#333"/>
        <path id="Path_42" data-name="Path 42" d="M406.568,319.995c2.046-.435,3.771-1.226,5.939-.8a16.882,16.882,0,0,1,4.864,2.265c.632.349,1.124-.446.83-.972-2.12-3.787-8.935-5.006-12.21-2.108C405.429,318.876,405.6,320.2,406.568,319.995Z" fill="#333"/>
        <path id="Path_43" data-name="Path 43" d="M451.076,375.106c-3.12-5.36-7.42-9.78-9.26-15.84-1.85-6.13-1.83-12.63-1.74-18.97.32-22.97,2.15-51.66-18.63-67.14-8.92-6.65-22.21-10.2-33.01-6.5-.01.01-.01.01-.02.01-8.75-1.24-18.05,2.82-24.4,8.67-7.85,7.25-10.56,17.52-11.8,27.78a239.644,239.644,0,0,0-1.38,37.4c.23,6.26.59,12.53-1.47,18.55-1.86,5.41-5.1,10.21-8.29,14.9-2.83,4.17-5.83,9.29-3.29,14.35,2.35,4.68,7.3,4.4,11.4,2.61a6.158,6.158,0,0,0,4.1,4.54c-2.29,6.52-4.24,13.17-5.89,19.88-1.82,7.38-3.28,14.85-4.42,22.32-.23,1.57,2.16,2.24,2.4.66q1.755-11.595,4.63-22.98c.22-.89.45-1.79.69-2.68,1.51-5.69,3.1-11.52,5.08-17.15a1.364,1.364,0,0,0,.44-1.22c.73-2.01,1.52-3.99,2.37-5.92,1.78-4.04,5.36-5.64,9.21-7.21-.27,4.28-.1,8.61-.17,12.88-.08,4.96-.25,9.91-.46,14.87-.09,2.14-.19,4.29-.28,6.43-.35,7.56-.72,15.1-1.09,22.66-.08,1.58,2.38,1.58,2.45,0,.37-7.56.78-15.1,1.11-22.66.1-2.14.19-4.29.27-6.43.02-.5.04-.99.06-1.49,2.12.76,4.1-.77,5.61-2.56.26,1.88,1.21,3.54,3.49,3.63,1.98.09,3.57-1.24,4.74-2.88a4.016,4.016,0,0,0,3.78,3.14c2.49.15,4.15-1.41,5.35-3.34a5.513,5.513,0,0,0,4.09,3.72c2.15.38,3.66-1.28,4.68-3.2a4.165,4.165,0,0,0,3.89,2.78c2.6.04,4.26-1.66,5.43-3.69a5.39,5.39,0,0,0,2.62,3,5.841,5.841,0,0,0,4.84-.05c-.01.48-.02.96-.02,1.43l-.09,5.94c-.13,7.92-.29,15.84-.25,23.76a1.321,1.321,0,0,0,2.64,0c.25-7.92.3-15.84.37-23.76.02-2.12.04-4.25.07-6.37.12-8.8.95-18.36-1.05-27.04,3.14,1.38,5.91,3.05,7.4,6.44,3.4,7.72,5.73,16.14,7.89,24.29.24.89.47,1.79.69,2.68q2.88,11.37,4.62,22.98c.24,1.58,2.64.91,2.4-.66-1.14-7.47-2.59-14.94-4.41-22.32q-1.785-7.26-4.05-14.38a7.179,7.179,0,0,0,8.96-5.59c3.78.59,7.63-1.7,9.46-5.07C455.466,385.456,453.676,379.556,451.076,375.106Zm-36.96,30.76c-1.44-.87-1.73-2.66-2.05-4.19-.23-1.16-1.73-.89-2.09,0-.72,1.76-1.57,4.01-3.54,4.66-2.85.95-3.52-1.82-3.69-3.94a1.075,1.075,0,0,0-2.1-.29c-.47,1.6-1.76,5.36-3.97,4.73-1.84-.52-2.42-3.06-2.49-4.69-.05-.98-1.61-1.65-2.07-.55-.74,1.73-1.61,4.09-3.59,4.7-3.01.93-3.23-2.34-3.14-4.45.05-1.36-1.8-1.43-2.23-.3a8.373,8.373,0,0,1-2.84,4.1c-3.27,2.06-3.09-2.23-2.87-4.1.12-1.05-1.39-1.27-1.87-.51-.85,1.37-3.51,5.73-5.39,4.09a2.094,2.094,0,0,1-.4-.49c.06-1.85.11-3.71.15-5.56.15-.45.29-.85.43-1.2,3.53.57,7.35.22,10.88.21l12.6-.03c8.15-.02,16.32.13,24.47-.13,0,2.53-.04,5.05-.08,7.57A3.923,3.923,0,0,1,414.116,405.866Zm-47.53-97.45c3.76-4.29,9.31-7.01,14.17-9.93,3.59-2.16,8.39-4.96,10.24-9.03a13.158,13.158,0,0,0,3.46,4.9,23.677,23.677,0,0,0,9.91,4.99c4.07,1.09,8.28,1.54,12.33,2.73,2.71.8,5.91,2.18,7.88,4.43-1.39,9.32-2.77,18.63-4.3,27.93-.74,4.52-1.27,9.12-2.22,13.6-1.07,5.04-4.59,7.45-8.78,9.96a41.238,41.238,0,0,1-12,5.28c-4.7,1.03-9.04-.83-13.13-3a44.019,44.019,0,0,1-10.58-7.34c-3.31-3.33-3.72-7.68-4.18-12.1a.968.968,0,0,0-.04-.38c-.01-.1-.02-.21-.03-.31C368.2,329.6,367.826,318.936,366.586,308.416Zm.25,31.05c-4.99-.91-9.37-4.9-8.99-10.37a4.521,4.521,0,0,1,5.9-4.28c.23.07.96.56,1.62.81C365.816,330.266,366.356,334.886,366.836,339.466Zm57.31-15.11a4.289,4.289,0,0,1,5.2-.86c2.22,1.29,2.73,4.29,2.05,6.56-1.37,4.56-5.25,7.37-9.63,8.51Q423.011,331.471,424.146,324.356Zm-39.81,39.35c0-.23.01-.47.01-.7a24.756,24.756,0,0,0,8.36,2.74,18.64,18.64,0,0,0,8.82-1.51c-.01,2.02-.04,4.06.06,6.08a5.527,5.527,0,0,0,.8,2.67c-2.17,3.83-5.71,8.99-10.72,7.17-3.56-1.3-5.59-5.45-7.52-8.87a7.322,7.322,0,0,0,.13-.97C384.386,368.116,384.336,365.9,384.336,363.706Zm2.37,13.79c1.47,1.97,3.25,3.88,5.8,4.26,4.7.71,7.91-2.94,10.2-6.62-1,5.14-3,13.93-8.65,14.13a2.092,2.092,0,0,0-.5,0,6.333,6.333,0,0,1-1.18-.17c-6.23-1.49-6.97-9.72-8.27-15.45A42.47,42.47,0,0,0,386.706,377.5Zm-1.46,6.7c1.21,2.8,3.31,5.53,6.32,6.4a2.447,2.447,0,0,0,.05,2.53,2.512,2.512,0,0,0,2.83,1.08,1.6,1.6,0,0,0,.23-.1,2.32,2.32,0,0,0,.91-.55,2.036,2.036,0,0,0,.56-1.66c0-.02.01-.05.01-.08a2.368,2.368,0,0,0-.21-.88l-.03-.12a1.544,1.544,0,0,0-.07-.23c5.59-1.73,7.46-10.3,8.49-15.6a27.383,27.383,0,0,0,3.52,1.94c3.05,1.52,6.27,2.67,9.43,3.93,0,.02-.01.05,0,.07.4,4.63.94,9.2,1.01,13.86v.93c-8.14-.21-16.31,0-24.45.03q-6.3.03-12.6.05c-3.66.01-7.62-.35-11.25.31.01-.55.03-1.09.03-1.63a116.544,116.544,0,0,0-.22-14.11c2.76-1.08,5.54-2.12,8.2-3.44a18.336,18.336,0,0,0,4.4-2.66A36.177,36.177,0,0,0,385.246,384.2Zm65.07,5.31c-1.51,2.38-4.69,4.24-7.5,3.03a1.333,1.333,0,0,0-1.98,1.14c-.08,3.5-3.34,5.88-6.63,4.27a1.4,1.4,0,0,0-.83-.14q-1.545-4.59-3.3-9.09c-1.19-3.01-2.72-5.46-5.51-7.19-3.17-1.96-6.86-3.14-10.31-4.5-2.73-1.08-10.02-3.27-10.2-6.71-.11-2.2-.13-4.41-.23-6.61-.01-.15-.01-.3-.01-.45.6-.28,1.2-.56,1.79-.85,3.96-1.93,8.47-4.28,11.43-7.63,2.9-3.29,3.26-8.01,4.01-12.15.1-.6.21-1.2.32-1.8,6.39-.43,13.48-6.94,12.59-13.69-.38-2.85-2.25-5.6-5.19-6.23a5.818,5.818,0,0,0-4.19.67c.6-3.87,1.18-7.76,1.73-11.64.04.22.08.44.1.67.19,2.08,3.46,2.1,3.27,0-.76-8.29-10.8-10.87-17.54-12.17-4.26-.83-8.73-1.44-12.63-3.45a15.724,15.724,0,0,1-4.82-3.7c-1.37-1.6-1.96-3.51-2.92-5.31,0-.22,0-.45-.02-.68-.05-.59-.92-.78-1.08-.15-1.9,7.49-9.11,10.82-15.35,14.32-5.82,3.27-11.69,5.92-14.42,12.42-.65,1.55,2.06,2.7,2.73,1.15a14.243,14.243,0,0,1,.81-1.61c.1,3.92.37,7.87.71,11.81a6.118,6.118,0,0,0-6.23-.18,7.287,7.287,0,0,0-3.54,7.07,12.554,12.554,0,0,0,11.7,11.67c.39,3.84.84,7.78,3.21,10.95,2.53,3.4,6.43,5.88,10.02,8.01.58.34,1.17.69,1.77,1.02-.02.65-.01,1.31-.04,1.93-.1,2.2-.12,4.41-.23,6.61-.18,3.44-7.47,5.63-10.2,6.71-3.45,1.36-7.14,2.54-10.31,4.5a13.686,13.686,0,0,0-5.51,7.19c-.54,1.39-1.06,2.78-1.57,4.17a3.361,3.361,0,0,1-2.37-3.84,1.428,1.428,0,0,0-2.07-1.59c-2.17,1.24-5.25,2.7-7.7,1.3-2-1.14-2.53-3.83-2.16-5.94.81-4.68,4.85-8.83,7.29-12.77a44.833,44.833,0,0,0,5.85-13.1c1.2-5.12.95-10.4.76-15.62a257.254,257.254,0,0,1,.82-32.85c.87-9.66,2.23-20.1,8.4-27.98,6.47-8.26,16.09-11.54,26.24-12.1a.7.7,0,0,0,.47-.2,46.2,46.2,0,0,1,13.49-.08,38.634,38.634,0,0,1,13.68,5.08c9.05,5.5,14.77,14.76,17.71,24.76,3.33,11.28,3.26,23.14,3.03,34.79-.2,10.67-1.31,22.44,3.72,32.27,2.75,5.37,7.45,9.67,9.38,15.48C451.726,383.4,452.026,386.806,450.316,389.506Z" fill="#333"/>
      </g>
      <path id="Path_44" data-name="Path 44" d="M450.316,389.506c-1.51,2.38-4.69,4.24-7.5,3.03a1.333,1.333,0,0,0-1.98,1.14c-.08,3.5-3.34,5.88-6.63,4.27a1.4,1.4,0,0,0-.83-.14q-1.545-4.59-3.3-9.09c-1.19-3.01-2.72-5.46-5.51-7.19-3.17-1.96-6.86-3.14-10.31-4.5-2.73-1.08-10.02-3.27-10.2-6.71-.11-2.2-.13-4.41-.23-6.61-.01-.15-.01-.3-.01-.45.6-.28,1.2-.56,1.79-.85,3.96-1.93,8.47-4.28,11.43-7.63,2.9-3.29,3.26-8.01,4.01-12.15.1-.6.21-1.2.32-1.8,6.39-.43,13.48-6.94,12.59-13.69-.38-2.85-2.25-5.6-5.19-6.23a5.818,5.818,0,0,0-4.19.67c.6-3.87,1.18-7.76,1.73-11.64.04.22.08.44.1.67.19,2.08,3.46,2.1,3.27,0-.76-8.29-10.8-10.87-17.54-12.17-4.26-.83-8.73-1.44-12.63-3.45a15.724,15.724,0,0,1-4.82-3.7c-1.37-1.6-1.96-3.51-2.92-5.31,0-.22,0-.45-.02-.68-.05-.59-.92-.78-1.08-.15-1.9,7.49-9.11,10.82-15.35,14.32-5.82,3.27-11.69,5.92-14.42,12.42-.65,1.55,2.06,2.7,2.73,1.15a14.243,14.243,0,0,1,.81-1.61c.1,3.92.37,7.87.71,11.81a6.118,6.118,0,0,0-6.23-.18,7.287,7.287,0,0,0-3.54,7.07,12.554,12.554,0,0,0,11.7,11.67c.39,3.84.84,7.78,3.21,10.95,2.53,3.4,6.43,5.88,10.02,8.01.58.34,1.17.69,1.77,1.02-.02.65-.01,1.31-.04,1.93-.1,2.2-.12,4.41-.23,6.61-.18,3.44-7.47,5.63-10.2,6.71-3.45,1.36-7.14,2.54-10.31,4.5a13.686,13.686,0,0,0-5.51,7.19c-.54,1.39-1.06,2.78-1.57,4.17a3.361,3.361,0,0,1-2.37-3.84,1.428,1.428,0,0,0-2.07-1.59c-2.17,1.24-5.25,2.7-7.7,1.3-2-1.14-2.53-3.83-2.16-5.94.81-4.68,4.85-8.83,7.29-12.77a44.833,44.833,0,0,0,5.85-13.1c1.2-5.12.95-10.4.76-15.62a257.254,257.254,0,0,1,.82-32.85c.87-9.66,2.23-20.1,8.4-27.98,6.47-8.26,16.09-11.54,26.24-12.1a.7.7,0,0,0,.47-.2,46.2,46.2,0,0,1,13.49-.08,38.634,38.634,0,0,1,13.68,5.08c9.05,5.5,14.77,14.76,17.71,24.76,3.33,11.28,3.26,23.14,3.03,34.79-.2,10.67-1.31,22.44,3.72,32.27,2.75,5.37,7.45,9.67,9.38,15.48C451.726,383.4,452.026,386.806,450.316,389.506Z" fill="#333"/>
    </g>
    <path id="Path_45" data-name="Path 45" d="M382.221,342.338a4.494,4.494,0,0,0-2.045-2.658,4.389,4.389,0,0,0-3.428-.449,16.533,16.533,0,0,1-1.816.486,4.287,4.287,0,0,0-1.024,7.834,4.533,4.533,0,0,0,2.171.53l-.008.055a11.575,11.575,0,0,0,3.043-.325,4.076,4.076,0,0,0,1.975-1.174c.064-.056.136-.1.2-.161a3.759,3.759,0,0,0,1.043-2.351A4,4,0,0,0,382.221,342.338Z" fill="#e5b5b5"/>
    <path id="Path_46" data-name="Path 46" d="M417.223,339.962a4.648,4.648,0,0,0-4.36-3.32,8.636,8.636,0,0,0-5.378,2.2,4.061,4.061,0,0,0,2.872,6.933c.263-.011.524-.045.785-.082.577-.036,1.151.04,1.721-.009a4.891,4.891,0,0,0,2.74-.971,4.525,4.525,0,0,0,1.62-2.349A4.262,4.262,0,0,0,417.223,339.962Z" fill="#e5b5b5"/>
  </g>
</svg>
