<svg xmlns="http://www.w3.org/2000/svg" width="99.934" height="171.545" viewBox="0 0 99.934 171.545">
  <g id="Group_17" data-name="Group 17" transform="translate(-51.809 -268.833)">
    <g id="Group_16" data-name="Group 16">
      <g id="Group_15" data-name="Group 15">
        <path id="Path_58" data-name="Path 58" d="M151.726,438.816a235.187,235.187,0,0,0-9.71-40.47q-1.455-4.275-3.1-8.48c-.21-.54-.44-1.07-.68-1.57,8.26.64,12.78-7.97,12.83-15.41.05-5.46-1.39-10.85-1.97-16.25-.6-5.57-.81-11.17-.92-16.77-.2-10.92.05-21.87-1.32-32.74-1.16-9.24-3.41-18.86-9.95-25.88-5.3-5.7-14.85-9.61-22.09-5.88-15.89-15.29-43.45-1.2-51.2,16.19-4.82,10.82-5.45,22.96-4.97,34.63.49,11.94,2.58,23.9,2.33,35.86a35.5,35.5,0,0,1-1.56,10.34c-.95,2.92-2.83,5.57-3.27,8.65a8.4,8.4,0,0,0,8.23,9.5c-1,2.58-1.95,5.19-2.84,7.81a235.186,235.186,0,0,0-9.71,40.47c-.24,1.57,2.16,2.24,2.4.66q.81-5.325,1.85-10.62a5.167,5.167,0,0,0,1.65,1.23l.06.03c.13.06.26.11.39.16a4.888,4.888,0,0,0,2.03.29c3.77-.3,7.41-4.98,5.07-8.56a6.621,6.621,0,0,0-6.76-2.39c-.15.04-.31.08-.47.13.48-1.98.97-3.96,1.49-5.94,1.07-4.01,2.18-8.1,3.43-12.14a5.573,5.573,0,0,0,8.39,1.41,7.024,7.024,0,0,0,2.4-4.73,8.348,8.348,0,0,0-1.6-5.93,4.8,4.8,0,0,0-4.38-1.91,3.331,3.331,0,0,0-.88.27c.17-.42.35-.84.53-1.25,1.83-4.14,5.56-5.72,9.52-7.33,3.31-1.34,6.7-2.53,9.9-4.12.21-.1.42-.2.62-.3a51.477,51.477,0,0,0,3.04,5.57c.97,1.75,1.95,3.51,2.94,5.26a4.2,4.2,0,0,0-2.43-.04,5.5,5.5,0,0,0-.65.15,4.566,4.566,0,0,0-2.66,6.13,4.135,4.135,0,0,0,2.78,3.5,3.822,3.822,0,0,0,1.08.19,4.023,4.023,0,0,0,1.37-.19,3.559,3.559,0,0,0,1.31-.72,3.165,3.165,0,0,0,.41-.21,4.271,4.271,0,0,0,2.04-3.07q1.14,2.01,2.29,4,2.415,4.275,4.88,8.55a1.067,1.067,0,0,0,1.82,0c1.61-2.79,3.07-5.65,4.42-8.55a207.962,207.962,0,0,0,7.68-19.75c2.88,1.34,5.88,2.41,8.82,3.6,3.96,1.61,7.69,3.19,9.52,7.33,1.26,2.86,2.37,5.81,3.38,8.82.45,1.34.88,2.69,1.3,4.04a4.243,4.243,0,0,0-2.41-.31c-.06,0-.11-.01-.16-.01a5.213,5.213,0,0,0-5.1,6.17,5.458,5.458,0,0,0,6.56,4.24,4.839,4.839,0,0,0,3.31-2.41c.34,1.25.68,2.5,1.01,3.74q1.9,7.215,3.35,14.52a6.428,6.428,0,0,0-2.19-.67,4.431,4.431,0,0,0-1.74.15c-1.94.23-4.11,1.59-4.67,3.49a4.994,4.994,0,0,0,2.48,5.54,6.662,6.662,0,0,0,.86.39,5.143,5.143,0,0,0,3.93.63,4.4,4.4,0,0,0,1.65-.47,4.283,4.283,0,0,0,1.17-.88c.16.99.32,1.98.47,2.97C149.566,441.056,151.966,440.386,151.726,438.816Zm-43.91-40.47c-.93,2-1.93,3.97-3.02,5.89-1.09-1.96-2.19-3.93-3.29-5.89q-2.31-4.14-4.64-8.26-2.115-3.75-4.27-7.47a42.623,42.623,0,0,0-3.36-5.77c2.08-1.19,3.75-2.66,3.88-5.38.12-2.2.06-4.42.06-6.62,0-.23.01-.46.02-.7a24.724,24.724,0,0,0,8.35,2.75,18.721,18.721,0,0,0,8.82-1.51c0,2.02-.04,4.06.07,6.08.17,3.34,2.64,4.8,5.36,6.16A206.915,206.915,0,0,1,107.816,398.346ZM75.5,310.066a21.466,21.466,0,0,0,3.92-1.5c3.9-1.9,7.1-5.01,10.09-8.09,3.03-3.12,5.97-6.63,9.75-8.87a11.655,11.655,0,0,1,5.92-1.79,8.109,8.109,0,0,1,4.65,1.56c-.18.11-.35.21-.52.33-.61.39-.24,1.49.52,1.23,6.67-2.28,14.36-1.2,19.02,4.42,2.09,2.53,2.77,5.39,3.74,8.44a18.2,18.2,0,0,0,.8,2.1c-1.38,9.23-2.75,18.47-4.27,27.69-.74,4.52-1.27,9.11-2.21,13.6-1.07,5.04-4.6,7.44-8.79,9.96a41.18,41.18,0,0,1-11.99,5.28c-4.71,1.03-9.04-.83-13.13-3a43.822,43.822,0,0,1-10.58-7.34c-3.31-3.33-3.73-7.68-4.18-12.1a1.2,1.2,0,0,0-.04-.38c-.01-.11-.02-.21-.03-.32C77.066,330.916,76.686,320.426,75.5,310.066Zm.19,30.55c-4.99-.91-9.37-4.9-9-10.37a4.529,4.529,0,0,1,5.91-4.28c.23.07.95.55,1.62.81C74.666,331.406,75.2,336.036,75.686,340.616Zm62.51-15.97c2.21,1.29,2.72,4.29,2.04,6.56-1.36,4.56-5.24,7.37-9.62,8.51q1.245-7.1,2.37-14.21A4.3,4.3,0,0,1,138.2,324.646Zm-1.45,61.11a11.8,11.8,0,0,0-3.34-3.08c-3.16-1.96-6.86-3.14-10.3-4.5-2.73-1.08-10.02-3.27-10.2-6.71-.12-2.2-.14-4.41-.24-6.62,0-.14-.01-.29-.01-.44.61-.28,1.21-.56,1.8-.85,3.96-1.93,8.47-4.29,11.42-7.64,2.91-3.29,3.26-8.01,4.01-12.14.11-.6.22-1.2.32-1.8,6.39-.44,13.48-6.94,12.59-13.69-.37-2.85-2.24-5.6-5.18-6.23a5.818,5.818,0,0,0-4.19.67q.945-6.12,1.81-12.25a5.906,5.906,0,0,0,1.64,1.02c1.19.5,2.2-1.35,1.25-2.15-2.75-2.34-2.97-5.45-4.19-8.65a18.2,18.2,0,0,0-5.69-7.75,16.409,16.409,0,0,0-16.03-2.73c-2.05-2.56-5.81-3.32-8.93-2.87-4.18.6-7.68,3.26-10.68,6.06-3.41,3.18-6.39,6.82-10.02,9.77a25,25,0,0,1-6.55,3.91c-2.24.88-4.57.88-6.83,1.5a.7.7,0,0,0-.17,1.26,7.5,7.5,0,0,0,4.21.64c.04,4.62.34,9.26.75,13.9a6.1,6.1,0,0,0-6.23-.18,7.252,7.252,0,0,0-3.54,7.07,12.562,12.562,0,0,0,11.7,11.67c.38,3.84.84,7.78,3.2,10.95,2.53,3.4,6.43,5.88,10.03,8.01.57.34,1.16.68,1.76,1.02-.01.65-.01,1.3-.03,1.92-.1,2.21-.12,4.42-.24,6.62-.18,3.44-7.47,5.63-10.2,6.71-3.44,1.36-7.14,2.54-10.3,4.5a12.319,12.319,0,0,0-4.55,5.05,1.47,1.47,0,0,0-.79-.21,5.783,5.783,0,0,1-5.5-3.68c-.89-2.57.64-5.19,1.66-7.48a36.634,36.634,0,0,0,2.97-14.31c.26-10.63-1.47-21.28-2.22-31.86-.75-10.64-.77-21.49,2.04-31.86,1.43-5.28,3.5-10.3,7.27-14.36a44.878,44.878,0,0,1,12.03-9.07c9.64-5.07,21.93-5.91,30.91.95a12.146,12.146,0,0,0-1.88,1.39c-.46.41.03,1.34.64,1.09,7.83-3.25,15.93-1.89,21.92,4.22,6.07,6.19,8.32,14.92,9.5,23.26,2.62,18.62.3,37.55,3.11,56.16.78,5.16,2.04,10.53.68,15.71-1.21,4.6-5.19,8.97-10.36,7.97A1.26,1.26,0,0,0,136.746,385.756Z" fill="#333"/>
        <path id="Path_59" data-name="Path 59" d="M105.171,418.7a3.067,3.067,0,0,0,1.545-4.488,2.326,2.326,0,0,0-2.068-1.306,2.256,2.256,0,0,0-1,.314,2.425,2.425,0,0,0-1.619,1.654,2.834,2.834,0,0,0-.071.329,2.24,2.24,0,0,0-.185.49A2.647,2.647,0,0,0,105.171,418.7Z" fill="#333"/>
        <path id="Path_60" data-name="Path 60" d="M105.507,423.785a2.349,2.349,0,0,0-.674-.107,2.782,2.782,0,0,0-2.266,1.245,2.725,2.725,0,0,0,1.378,4.159,2.851,2.851,0,0,0,3.5-2.369,2.594,2.594,0,0,0-.623-2.368A2.081,2.081,0,0,0,105.507,423.785Z" fill="#333"/>
        <path id="Path_61" data-name="Path 61" d="M87.3,411.064a4.968,4.968,0,0,0-6.921-1.526,5.561,5.561,0,0,0-1.6,1.355,4.216,4.216,0,0,0-1.167,3.32,4.753,4.753,0,0,0,.63,2.28,5.045,5.045,0,0,0,2.138,2c1.969,1.227,4.757,1.662,6.484-.009C88.8,416.612,88.663,413.22,87.3,411.064Z" fill="#333"/>
        <path id="Path_62" data-name="Path 62" d="M97.46,431.589c-.685-2.978-4.387-3.515-6.735-2.274a5.348,5.348,0,0,0-2.686,3.341,4.824,4.824,0,0,0-.263,1.372,5.207,5.207,0,0,0,3.717,5.246,5.043,5.043,0,0,0,6-3.054,4.612,4.612,0,0,0,.152-2.544A8.034,8.034,0,0,0,97.46,431.589Z" fill="#333"/>
        <path id="Path_63" data-name="Path 63" d="M126.276,416.542a4.737,4.737,0,0,0-1.725-.857c-2.611-.667-5.022,1.167-5.891,3.534a5.541,5.541,0,0,0,2.178,6.406,4.985,4.985,0,0,0,6.76-1.489c1.436-1.963,1.616-4.97-.183-6.764A4.622,4.622,0,0,0,126.276,416.542Z" fill="#333"/>
        <path id="Path_64" data-name="Path 64" d="M119.964,402.143a5.326,5.326,0,0,0,1.708-9.629,4.339,4.339,0,0,0-5.728,1.279c-.077.061-.155.121-.228.186a4.689,4.689,0,0,0-1.107,5.379A4.76,4.76,0,0,0,119.964,402.143Z" fill="#333"/>
        <path id="Path_65" data-name="Path 65" d="M101,332.312a3.888,3.888,0,0,0,1.663.419c.109.013.219.022.33.032a1.357,1.357,0,0,0,.75-.192h0c.013-.007.024-.015.037-.023a1.641,1.641,0,0,0,.332-.248,1.61,1.61,0,0,0,.463-1.12,1.818,1.818,0,0,0-.409-1.035,1.342,1.342,0,0,0-1.174-.548,4.766,4.766,0,0,0-1.993.452A1.326,1.326,0,0,0,101,332.312Z" fill="#333"/>
        <path id="Path_66" data-name="Path 66" d="M109.666,343.373c1.064-.614.131-2.1-.943-1.614a13.953,13.953,0,0,1-13.009-.706.492.492,0,0,0-.667.667C97.593,346.64,105.726,345.646,109.666,343.373Z" fill="#333"/>
        <path id="Path_67" data-name="Path 67" d="M81.2,318.785a6.2,6.2,0,0,1,5.031-2.726c2.031.055,3.184,1.318,4.508,2.646.189.189.605.063.572-.237-.252-2.282-2.544-3.734-4.682-4.031a7.306,7.306,0,0,0-6.785,3.3C79.272,318.523,80.6,319.559,81.2,318.785Z" fill="#333"/>
        <path id="Path_68" data-name="Path 68" d="M115.436,318.785a6.2,6.2,0,0,1,5.031-2.726c2.031.055,3.184,1.318,4.508,2.646.188.189.605.063.572-.237-.252-2.282-2.544-3.734-4.683-4.031a7.305,7.305,0,0,0-6.784,3.3C113.508,318.523,114.833,319.559,115.436,318.785Z" fill="#333"/>
        <path id="Path_69" data-name="Path 69" d="M80.205,323.9c-.224.264-.105.809.317.766a20.192,20.192,0,0,0,3.253-.777,4.753,4.753,0,0,0-.235.676,8.58,8.58,0,0,0,.53,5.223,2.658,2.658,0,0,0,3.382,1.554c1.628-.687,1.834-2.78,1.877-4.32a9.089,9.089,0,0,0-.477-3.516,15.405,15.405,0,0,1,1.579.26c1.257.275,1.787-1.675.531-1.926C87.681,321.187,82.6,321.09,80.205,323.9Z" fill="#333"/>
        <path id="Path_70" data-name="Path 70" d="M115.145,323.769a15.405,15.405,0,0,1,1.579-.26,9.089,9.089,0,0,0-.477,3.516c.042,1.54.249,3.633,1.877,4.32a2.658,2.658,0,0,0,3.382-1.554,8.58,8.58,0,0,0,.53-5.223,4.881,4.881,0,0,0-.235-.676,20.191,20.191,0,0,0,3.253.777c.422.043.541-.5.317-.766-2.394-2.813-7.476-2.716-10.757-2.06C113.357,322.094,113.888,324.044,115.145,323.769Z" fill="#333"/>
      </g>
      <path id="Path_71" data-name="Path 71" d="M147.936,377.676c-1.21,4.6-5.19,8.97-10.36,7.97a1.26,1.26,0,0,0-.83.11,11.8,11.8,0,0,0-3.34-3.08c-3.16-1.96-6.86-3.14-10.3-4.5-2.73-1.08-10.02-3.27-10.2-6.71-.12-2.2-.14-4.41-.24-6.62,0-.14-.01-.29-.01-.44.61-.28,1.21-.56,1.8-.85,3.96-1.93,8.47-4.29,11.42-7.64,2.91-3.29,3.26-8.01,4.01-12.14.11-.6.22-1.2.32-1.8,6.39-.44,13.48-6.94,12.59-13.69-.37-2.85-2.24-5.6-5.18-6.23a5.818,5.818,0,0,0-4.19.67q.945-6.12,1.81-12.25a5.906,5.906,0,0,0,1.64,1.02c1.19.5,2.2-1.35,1.25-2.15-2.75-2.34-2.97-5.45-4.19-8.65a18.2,18.2,0,0,0-5.69-7.75,16.409,16.409,0,0,0-16.03-2.73c-2.05-2.56-5.81-3.32-8.93-2.87-4.18.6-7.68,3.26-10.68,6.06-3.41,3.18-6.39,6.82-10.02,9.77a25,25,0,0,1-6.55,3.91c-2.24.88-4.57.88-6.83,1.5a.7.7,0,0,0-.17,1.26,7.5,7.5,0,0,0,4.21.64c.04,4.62.34,9.26.75,13.9a6.1,6.1,0,0,0-6.23-.18,7.252,7.252,0,0,0-3.54,7.07,12.562,12.562,0,0,0,11.7,11.67c.38,3.84.84,7.78,3.2,10.95,2.53,3.4,6.43,5.88,10.03,8.01.57.34,1.16.68,1.76,1.02-.01.65-.01,1.3-.03,1.92-.1,2.21-.12,4.42-.24,6.62-.18,3.44-7.47,5.63-10.2,6.71-3.44,1.36-7.14,2.54-10.3,4.5a12.319,12.319,0,0,0-4.55,5.05,1.47,1.47,0,0,0-.79-.21,5.783,5.783,0,0,1-5.5-3.68c-.89-2.57.64-5.19,1.66-7.48a36.634,36.634,0,0,0,2.97-14.31c.26-10.63-1.47-21.28-2.22-31.86-.75-10.64-.77-21.49,2.04-31.86,1.43-5.28,3.5-10.3,7.27-14.36a44.878,44.878,0,0,1,12.03-9.07c9.64-5.07,21.93-5.91,30.91.95a12.146,12.146,0,0,0-1.88,1.39c-.46.41.03,1.34.64,1.09,7.83-3.25,15.93-1.89,21.92,4.22,6.07,6.19,8.32,14.92,9.5,23.26,2.62,18.62.3,37.55,3.11,56.16C148.036,367.126,149.3,372.5,147.936,377.676Z" fill="#333"/>
    </g>
    <path id="Path_72" data-name="Path 72" d="M88.825,337.142a5.076,5.076,0,0,0-3.2-1.327,5.8,5.8,0,0,0-2.875.784,4.315,4.315,0,0,0-1.994,2.593,4.494,4.494,0,0,0,.218,2.825,4.14,4.14,0,0,0,1.776,2.075c.17.09.354.172.543.249a4.574,4.574,0,0,0,2.332.536,4.854,4.854,0,0,0,3.2-1.328,4.53,4.53,0,0,0,0-6.407Z" fill="#e5b5b5"/>
    <path id="Path_73" data-name="Path 73" d="M125.279,339.2a4.525,4.525,0,0,0-2.071-2.694,7.243,7.243,0,0,0-5.855-.364,4.725,4.725,0,0,0-2.611,2.007,4.368,4.368,0,0,0,1.567,5.976l1.044.44a4.457,4.457,0,0,0,1.161.156,5.667,5.667,0,0,1,1.034.006,12.615,12.615,0,0,0,1.384.179l1.2-.161a3.4,3.4,0,0,0,1.533-.806,4.3,4.3,0,0,0,1.615-2.342A5.359,5.359,0,0,0,125.279,339.2Z" fill="#e5b5b5"/>
  </g>
</svg>
