<svg width="24" height="24" viewBox="0 0 24 24" fill="none" xmlns="http://www.w3.org/2000/svg">
<path d="M7.9978 10.125C7.9978 9.77982 8.27762 9.5 8.6228 9.5H15.375C15.7202 9.5 16 9.77982 16 10.125C16 10.4702 15.7202 10.75 15.375 10.75H8.6228C8.27762 10.75 7.9978 10.4702 7.9978 10.125ZM8.625 13.2375C8.27982 13.2375 8 13.5173 8 13.8625C8 14.2077 8.27982 14.4875 8.625 14.4875H13.375C13.7202 14.4875 14 14.2077 14 13.8625C14 13.5173 13.7202 13.2375 13.375 13.2375H8.625ZM8.2678 2.72551C16.9118 -0.733801 25.4409 8.44338 20.7964 16.8035C18.6867 20.6008 13.4453 23.6587 7.3422 20.7665L3.10007 21.9786C2.44186 22.1666 1.83358 21.5608 2.01829 20.9021C2.27148 19.999 2.87141 17.8701 3.22217 16.7164C0.591516 12.0223 2.36537 5.08765 8.2678 2.72551ZM19.7037 16.1965C23.7466 8.91925 16.3422 0.840527 8.73223 3.88603C3.49396 5.98237 1.96958 12.2326 4.43504 16.3157L4.58049 16.5566L4.49656 16.8252C4.23049 17.6766 3.72812 19.442 3.40401 20.5917L7.46088 19.4326L7.6776 19.54C13.1808 22.2681 17.8385 19.5537 19.7037 16.1965Z" fill="white"/>
</svg>
