<svg width="34" height="38" viewBox="0 0 34 38" fill="none" xmlns="http://www.w3.org/2000/svg">
<path d="M14.6062 0.855174C16.0048 -0.285057 17.9952 -0.285059 19.3938 0.855174L32.5688 11.5966C33.4736 12.3342 34 13.4492 34 14.628V34.1134C34 36.2599 32.2875 38 30.175 38H25.075C22.9625 38 21.25 36.2599 21.25 34.1134V24.7492C21.25 24.0337 20.6792 23.4536 19.975 23.4536H14.025C13.3208 23.4536 12.75 24.0337 12.75 24.7492V34.1134C12.75 36.2599 11.0375 38 8.925 38H3.825C1.71251 38 0 36.2599 0 34.1134V14.628C0 13.4493 0.526446 12.3342 1.43124 11.5966L14.6062 0.855174ZM17.7979 2.87612C17.3317 2.49604 16.6683 2.49604 16.2021 2.87612L3.02708 13.6175C2.72548 13.8634 2.55 14.2351 2.55 14.628V34.1134C2.55 34.8289 3.12084 35.4089 3.825 35.4089H8.925C9.62917 35.4089 10.2 34.8289 10.2 34.1134V24.7492C10.2 22.6027 11.9125 20.8626 14.025 20.8626H19.975C22.0875 20.8626 23.8 22.6027 23.8 24.7492V34.1134C23.8 34.8289 24.3708 35.4089 25.075 35.4089H30.175C30.8792 35.4089 31.45 34.8289 31.45 34.1134V14.628C31.45 14.2351 31.2745 13.8634 30.9729 13.6175L17.7979 2.87612Z" fill="#212121"/>
</svg>
