<?xml version="1.0" encoding="utf-8"?>
<svg xmlns="http://www.w3.org/2000/svg" width="96" height="96" viewBox="0 0 48 48">
  <circle cx="30.473" cy="20.527" r="12.527" fill="#0d47a1" />
  <polygon fill="#0288d1" points="18.184,2.895 4.844,30 18.184,30 31.523,30" />
  <rect width="20" height="20" x="15" y="23" fill="#42a5f5" />
  <path fill="#fff" d="M22.688,27.972c0-1.13,0.138-2.031,0.414-2.7c0.277-0.67,0.783-1.33,1.521-1.98c0.736-0.648,1.227-1.178,1.472-1.586c0.244-0.408,0.365-0.838,0.365-1.291c0-1.365-0.635-2.047-1.904-2.047c-0.603,0-1.084,0.184-1.446,0.551c-0.362,0.368-0.552,0.589-0.568,1.235H19c0.016-1.541,0.519-2.462,1.508-3.335c0.988-0.87,2.338-1.307,4.047-1.307c1.726,0,3.064,0.414,4.018,1.242C29.523,17.581,30,18.748,30,20.258c0,0.687-0.154,1.334-0.464,1.943c-0.31,0.61-0.851,1.286-1.624,2.029l-0.988,0.932c-0.619,0.59-0.973,1.279-1.063,2.071l-0.049,0.738L22.688,27.972L22.688,27.972z M22.332,31.68c0-0.539,0.186-0.982,0.557-1.334c0.37-0.349,0.844-0.524,1.422-0.524s1.052,0.176,1.422,0.524c0.371,0.352,0.557,0.795,0.557,1.334c0,0.529-0.182,0.968-0.544,1.313c-0.363,0.345-0.842,0.519-1.435,0.519s-1.072-0.174-1.436-0.52C22.514,32.648,22.332,32.209,22.332,31.68z" />
</svg>