<svg width="24" height="24" viewBox="0 0 24 24" fill="none" xmlns="http://www.w3.org/2000/svg">
<g clip-path="url(#clip0_307_8)">
<path d="M10.08 0.959999C9.29017 0.959999 8.63999 1.61018 8.63999 2.4V3.36H3.83999C3.57455 3.36 3.35999 3.57504 3.35999 3.84C3.35999 4.10496 3.57455 4.32 3.83999 4.32H4.31999V21.6C4.31999 22.3939 4.96607 23.04 5.75999 23.04H16.3378C17.1389 23.6395 18.1281 24 19.2 24C21.84 24 24 21.84 24 19.2C24 16.7218 22.0968 14.6673 19.68 14.4244V4.32H20.16C20.4254 4.32 20.64 4.10496 20.64 3.84C20.64 3.57504 20.4254 3.36 20.16 3.36H15.36V2.4C15.36 1.61018 14.7098 0.959999 13.92 0.959999H10.08ZM10.08 1.92H13.92C14.1862 1.92 14.4 2.13382 14.4 2.4V3.36H9.59999V2.4C9.59999 2.13382 9.8138 1.92 10.08 1.92ZM9.11999 6.72C9.38543 6.72 9.59999 6.93504 9.59999 7.2V19.2C9.59999 19.465 9.38543 19.68 9.11999 19.68C8.85455 19.68 8.63999 19.465 8.63999 19.2V7.2C8.63999 6.93504 8.85455 6.72 9.11999 6.72ZM12 6.72C12.2654 6.72 12.48 6.93504 12.48 7.2V19.2C12.48 19.465 12.2654 19.68 12 19.68C11.7345 19.68 11.52 19.465 11.52 19.2V7.2C11.52 6.93504 11.7345 6.72 12 6.72ZM14.88 6.72C15.1454 6.72 15.36 6.93504 15.36 7.2V16.3284C14.8574 16.9995 14.5236 17.8046 14.429 18.6825C14.4204 18.6959 14.4086 18.7066 14.4 18.72V7.2C14.4 6.93504 14.6145 6.72 14.88 6.72ZM19.2 15.36C21.312 15.36 23.04 17.088 23.04 19.2C23.04 21.312 21.312 23.04 19.2 23.04C17.088 23.04 15.36 21.312 15.36 19.2C15.36 17.088 17.088 15.36 19.2 15.36ZM17.52 17.04C17.4 17.04 17.2804 17.0884 17.1844 17.1844C16.9924 17.3764 16.9924 17.6636 17.1844 17.8556L18.5278 19.2L17.1844 20.5444C16.9924 20.7364 16.9924 21.0236 17.1844 21.2156C17.3764 21.4076 17.6636 21.4076 17.8556 21.2156L19.2 19.8722L20.5444 21.2156C20.7364 21.4076 21.0236 21.4076 21.2156 21.2156C21.3116 21.1196 21.36 20.976 21.36 20.88C21.36 20.784 21.3116 20.6404 21.2156 20.5444L19.8722 19.2L21.2156 17.8556C21.3116 17.7596 21.36 17.616 21.36 17.52C21.36 17.424 21.3116 17.2804 21.2156 17.1844C21.0236 16.9924 20.7364 16.9924 20.5444 17.1844L19.2 18.5278L17.8556 17.1844C17.7596 17.0884 17.64 17.04 17.52 17.04Z" fill="#F60629"/>
</g>
<defs>
<clipPath id="clip0_307_8">
<rect width="24" height="24" fill="white"/>
</clipPath>
</defs>
</svg>
