<?xml version="1.0" encoding="utf-8"?>
<svg xmlns="http://www.w3.org/2000/svg" viewBox="0 0 50 50" width="100" height="100">
  <path d="M33.84375 1.4375L28.71875 9.125L40.875 21.28125L48.5625 16.15625 Z M 28.1875 11.4375C24.710938 14.058594 20.484375 15 13 15L12.1875 15L12.03125 15.8125C10.175781 25.089844 3.867188 43.328125 3.125 45.46875L21.28125 27.28125C21.332031 27.230469 21.410156 27.226563 21.46875 27.1875C21.292969 26.824219 21.1875 26.398438 21.1875 25.96875C21.1875 24.453125 22.421875 23.25 23.9375 23.25C25.453125 23.25 26.6875 24.453125 26.6875 25.96875C26.6875 27.488281 25.457031 28.71875 23.9375 28.71875C23.550781 28.71875 23.179688 28.644531 22.84375 28.5C22.800781 28.570313 22.777344 28.660156 22.71875 28.71875L4.53125 46.875C6.664063 46.132813 24.90625 39.824219 34.1875 37.96875L35 37.8125L35 37C35 29.515625 35.941406 25.289063 38.5625 21.8125Z" fill="#161616" />
</svg>