<svg width="40" height="40" viewBox="0 0 40 40" fill="none" xmlns="http://www.w3.org/2000/svg">
<path d="M18.5714 12.8571C18.5714 12.0682 19.211 11.4286 20 11.4286C20.789 11.4286 21.4286 12.0682 21.4286 12.8571V18.5714H27.1429C27.9318 18.5714 28.5714 19.211 28.5714 20C28.5714 20.789 27.9318 21.4286 27.1429 21.4286H21.4286V27.1429C21.4286 27.9318 20.789 28.5714 20 28.5714C19.211 28.5714 18.5714 27.9318 18.5714 27.1429V21.4286H12.8571C12.0682 21.4286 11.4286 20.789 11.4286 20C11.4286 19.211 12.0682 18.5714 12.8571 18.5714H18.5714V12.8571ZM40 20C40 31.0457 31.0457 40 20 40C8.9543 40 0 31.0457 0 20C0 8.9543 8.9543 0 20 0C31.0457 0 40 8.9543 40 20ZM37.1429 20C37.1429 10.5323 29.4677 2.85714 20 2.85714C10.5323 2.85714 2.85714 10.5323 2.85714 20C2.85714 29.4677 10.5323 37.1429 20 37.1429C29.4677 37.1429 37.1429 29.4677 37.1429 20Z" fill="#212121"/>
</svg>
