<svg width="39" height="40" viewBox="0 0 39 40" fill="none" xmlns="http://www.w3.org/2000/svg">
<path d="M0.0583371 13.8416C0.945886 11.1542 2.40799 8.68736 4.33719 6.59679C4.66342 6.24327 5.17523 6.11728 5.63347 6.27768L10.2439 7.89157C11.4938 8.32887 12.8692 7.69136 13.3159 6.46766C13.3598 6.34733 13.3936 6.2237 13.417 6.0982L14.2953 1.37818C14.3827 0.908877 14.7508 0.537658 15.2274 0.438347C16.6218 0.147768 18.0515 0 19.5 0C20.9476 0 22.3764 0.147588 23.7701 0.437816C24.2465 0.537039 24.6146 0.908024 24.7022 1.37714L25.583 6.09799C25.8211 7.3764 27.0727 8.22376 28.3785 7.99062C28.507 7.9677 28.6332 7.93457 28.7559 7.89164L33.3665 6.27768C33.8248 6.11728 34.3366 6.24327 34.6628 6.59679C36.592 8.68736 38.0541 11.1542 38.9417 13.8416C39.0914 14.2949 38.947 14.7919 38.576 15.1003L34.8391 18.2064C33.8273 19.0475 33.7036 20.5324 34.5627 21.523C34.6472 21.6204 34.7396 21.7109 34.8391 21.7935L38.576 24.8997C38.947 25.2081 39.0914 25.7051 38.9417 26.1585C38.0541 28.8458 36.592 31.3126 34.6628 33.4032C34.3366 33.7567 33.8248 33.8827 33.3665 33.7223L28.7561 32.1084C27.5062 31.6711 26.1308 32.3086 25.6841 33.5323C25.6402 33.6527 25.6064 33.7763 25.5829 33.9023L24.7022 38.6229C24.6146 39.092 24.2465 39.463 23.7701 39.5622C22.3764 39.8524 20.9476 40 19.5 40C18.0515 40 16.6218 39.8522 15.2274 39.5617C14.7508 39.4623 14.3827 39.0911 14.2953 38.6218L13.417 33.902C13.1789 32.6236 11.9273 31.7762 10.6214 32.0094C10.493 32.0323 10.3668 32.0654 10.2441 32.1084L5.63347 33.7223C5.17523 33.8827 4.66342 33.7567 4.33719 33.4032C2.40799 31.3126 0.945886 28.8458 0.0583371 26.1585C-0.0913961 25.7051 0.0529819 25.2081 0.423994 24.8997L4.16089 21.7936C5.17269 20.9525 5.29644 19.4676 4.4373 18.477C4.35282 18.3796 4.26038 18.2891 4.16094 18.2065L0.423994 15.1003C0.0529819 14.7919 -0.0913961 14.2949 0.0583371 13.8416ZM2.60725 13.8284L5.7165 16.4128C5.91548 16.5783 6.10037 16.7593 6.26933 16.9541C7.98762 18.9352 7.74011 21.9049 5.71645 23.5872L2.60725 26.1716C3.30916 28.0121 4.32207 29.7228 5.59932 31.2354L9.43508 29.8927C9.68089 29.8067 9.93346 29.7405 10.1903 29.6946C12.8019 29.2283 15.3051 30.9231 15.7815 33.4801L16.512 37.4059C17.4923 37.5659 18.4905 37.6471 19.5 37.6471C20.5088 37.6471 21.5064 37.566 22.486 37.4062L23.2186 33.4799C23.2654 33.2285 23.3331 32.9812 23.4209 32.7405C24.3143 30.2931 27.065 29.0181 29.5651 29.8928L33.4007 31.2354C34.6779 29.7228 35.6908 28.0121 36.3927 26.1716L33.2835 23.5872C33.0845 23.4217 32.8996 23.2407 32.7307 23.0459C31.0124 21.0648 31.2599 18.0951 33.2835 16.4128L36.3927 13.8284C35.6908 11.9879 34.6779 10.2773 33.4007 8.76456L29.5649 10.1073C29.3191 10.1933 29.0665 10.2595 28.8097 10.3054C26.1981 10.7717 23.6948 9.07695 23.2186 6.52046L22.486 2.59376C21.5064 2.43395 20.5088 2.35294 19.5 2.35294C18.4905 2.35294 17.4923 2.43406 16.512 2.59409L15.7814 6.52013C15.7346 6.77154 15.6669 7.0188 15.5791 7.25946C14.6857 9.70687 11.935 10.9819 9.43487 10.1072L5.59932 8.76456C4.32207 10.2773 3.30916 11.9879 2.60725 13.8284ZM13.4915 20C13.4915 16.7513 16.1816 14.1176 19.5 14.1176C22.8184 14.1176 25.5085 16.7513 25.5085 20C25.5085 23.2487 22.8184 25.8824 19.5 25.8824C16.1816 25.8824 13.4915 23.2487 13.4915 20ZM15.8949 20C15.8949 21.9492 17.509 23.5294 19.5 23.5294C21.491 23.5294 23.1051 21.9492 23.1051 20C23.1051 18.0508 21.491 16.4706 19.5 16.4706C17.509 16.4706 15.8949 18.0508 15.8949 20Z" fill="#212121"/>
</svg>
