<svg xmlns="http://www.w3.org/2000/svg" xmlns:xlink="http://www.w3.org/1999/xlink" viewBox="0 0 186 186"><defs><style>.a{fill:#fff;}.b{fill:#a1f807;}.c{fill:url(#a);}.d{fill:url(#b);}.e{fill:url(#c);}.f{fill:url(#d);}</style><linearGradient id="a" x1="-91.26" y1="-313.55" x2="-82.56" y2="-310.79" gradientTransform="matrix(15.53, 0, 0, -48.9, 1358.37, -15175.65)" gradientUnits="userSpaceOnUse"><stop offset="0" stop-color="#6619f8"/><stop offset="0.2" stop-color="#671af8"/><stop offset="0.27" stop-color="#6b21f8"/><stop offset="0.33" stop-color="#742ef8"/><stop offset="0.38" stop-color="#7f3ff9"/><stop offset="0.42" stop-color="#8e55fa"/><stop offset="0.44" stop-color="#9b69fb"/><stop offset="0.7" stop-color="#935cfa"/><stop offset="1" stop-color="#8d52fa"/></linearGradient><linearGradient id="b" x1="-87.73" y1="-318.95" x2="-85.07" y2="-315.45" gradientTransform="matrix(49.51, 0, 0, -37.68, 4303.68, -11844.36)" xlink:href="#a"/><linearGradient id="c" x1="-86.44" y1="-308.18" x2="-84.64" y2="-309.65" gradientTransform="matrix(51.27, 0, 0, -62.47, 4526.62, -19176.93)" gradientUnits="userSpaceOnUse"><stop offset="0" stop-color="#6619f8"/><stop offset="0.4" stop-color="#7936fa"/><stop offset="0.51" stop-color="#8549fa"/><stop offset="0.66" stop-color="#915bfa"/><stop offset="0.82" stop-color="#9865fa"/><stop offset="1" stop-color="#9b69fb"/></linearGradient><linearGradient id="d" x1="-86.92" y1="-353.24" x2="-85.38" y2="-360.15" gradientTransform="matrix(51.27, 0, 0, -11.47, 4527.05, -4066.5)" xlink:href="#c"/></defs><rect class="a" width="186" height="186" rx="28"/><path class="b" d="M90.1,137.6,62.5,104.4a12.8,12.8,0,0,0-9.7-4.5H41.1l30.4,37.7Z"/><path class="c" d="M21,48.1H36.5V86.4A10.6,10.6,0,0,1,25.9,97H21V48.1Z"/><path class="d" d="M90.7,48H72.4L41.2,85.7H58.3Z"/><path class="e" d="M133.8,75.1h-2.7v51h-18v11.5h51.3V126.1H146.3V87.6a12.5,12.5,0,0,0-12.5-12.5Z"/><path class="f" d="M113.1,59.5h39.8A11.6,11.6,0,0,0,164.4,48H113.1Z"/></svg>